<svg width="168" height="40" viewBox="0 0 168 40" fill="none" xmlns="http://www.w3.org/2000/svg">
<path d="M22.8196 0.00292969V5.66877H14.447V30.0519H8.3306V5.66877H0V0.00292969H22.8196Z" fill="#F4BD42"/>
<path d="M78.9621 4.45239H72.8457V30.0518H78.9621V4.45239Z" fill="#F4BD42"/>
<path d="M53.4889 6.32853C54.1861 5.79072 55.1447 5.52181 56.3648 5.52181H87.3503V0.0029298H56.3648C53.8418 -0.0558947 51.3822 0.772786 49.4414 2.33556C47.5242 3.89273 46.5656 5.97729 46.5656 8.58924C46.5382 9.78309 46.7863 10.9678 47.2918 12.0569C47.7633 13.038 48.4895 13.8837 49.3995 14.5115C50.261 15.1246 51.1897 15.6436 52.1688 16.0593C53.274 16.5091 54.4057 16.8954 55.5579 17.2162C57.9721 17.877 59.6473 18.4888 60.5833 19.0517C60.989 19.2784 61.3297 19.5997 61.5748 19.9863C61.8199 20.3729 61.9615 20.8127 61.9868 21.2657C62.0122 21.7188 61.9204 22.1708 61.7198 22.5808C61.5193 22.9908 61.2163 23.3458 60.8383 23.6137C60.0723 24.1932 58.8662 24.4819 57.2201 24.4798H32.8803V17.6477H45.2358C44.1465 16.6675 43.2622 15.4934 42.6311 14.1894C42.3003 13.5076 42.0377 12.7966 41.8467 12.0663H32.8803V5.6719H41.7079C42.1391 3.57507 43.1232 1.62206 44.5644 0.0029298H26.7671V30.0519H57.2201C60.3488 30.0227 62.8976 29.2399 64.8664 27.7036C66.8676 26.1339 67.8692 24.015 67.8714 21.3468C67.8774 20.5717 67.7687 19.7999 67.5486 19.0548C67.3666 18.4292 67.1088 17.8267 66.7804 17.26C66.4365 16.7119 66.0001 16.2236 65.4894 15.8154C65.0103 15.4141 64.5058 15.0424 63.9788 14.7022C63.3827 14.352 62.755 14.0548 62.1036 13.8142C61.2945 13.4994 60.6554 13.266 60.1863 13.1138C59.7183 12.9606 59.0276 12.7479 58.1206 12.4728C55.9021 11.812 54.4034 11.2002 53.6245 10.6373C53.2566 10.3906 52.9572 10.0597 52.7529 9.67413C52.5485 9.28853 52.4455 8.86005 52.4528 8.42664C52.4408 8.02229 52.5285 7.62099 52.7087 7.25607C52.8889 6.89116 53.1564 6.57317 53.4889 6.32853Z" fill="#F4BD42"/>
<path d="M14.4465 5.6687H8.33008V30.0518H14.4465V5.6687Z" fill="#F4BD42"/>
<path d="M78.9621 5.6687H72.8457V30.0518H78.9621V5.6687Z" fill="#F4BD42"/>
<path d="M60.584 19.0515C60.9896 19.2783 61.3304 19.5996 61.5755 19.9862C61.8206 20.3728 61.9622 20.8126 61.9875 21.2656C62.0128 21.7186 61.9211 22.1707 61.7205 22.5807C61.5199 22.9906 61.217 23.3457 60.839 23.6136C60.0729 24.1931 58.8669 24.4818 57.2208 24.4797H43.7646C43.7194 26.0431 43.6678 28.1475 43.6484 30.0517H57.2046C60.3333 30.0226 62.8821 29.2398 64.851 27.7035C68.169 21.3873 60.584 19.0515 60.584 19.0515Z" fill="#F4BD42"/>
<path d="M53.6184 10.6342C53.2505 10.3874 52.9511 10.0566 52.7468 9.671C52.5424 9.2854 52.4394 8.85693 52.4467 8.42352C52.4359 8.01916 52.5249 7.61812 52.7062 7.25375C52.8875 6.88938 53.156 6.57219 53.4893 6.32853C54.1865 5.79072 55.1451 5.52181 56.3651 5.52181H68.1655V0.0029298H56.3651C53.8422 -0.0558947 51.3826 0.772786 49.4418 2.33556C46.2206 6.80069 53.6184 10.6342 53.6184 10.6342Z" fill="#F4BD42"/>
<path d="M49.3258 24.4797V30.0518H37.8741C37.2185 30.0522 36.5693 29.9274 35.9635 29.6847C35.3577 29.4419 34.8072 29.0859 34.3435 28.637C33.8798 28.1881 33.512 27.655 33.261 27.0683C33.01 26.4816 32.8809 25.8528 32.8809 25.2177V24.4797H49.3258Z" fill="#F4BD42"/>
<path d="M41.2171 5.67189V0.00292969H37.8733C37.212 0.00824559 36.5583 0.139688 35.9496 0.389748C35.3408 0.639808 34.7888 1.00359 34.3251 1.46033C33.8614 1.91706 33.4952 2.45779 33.2472 3.05166C32.9993 3.64552 32.8745 4.28088 32.8801 4.92145V5.67189H41.2171Z" fill="#F4BD42"/>
<path d="M119.772 0.00292969V30.0519H116.67V4.55561L105.809 22.1535H105.367L94.5122 4.55561V30.0519H91.4072V0.00292969H95.2159L105.59 16.8222L115.963 0.00292969H119.772Z" fill="white"/>
<path d="M129.962 27.219H144.512V30.0519H126.86V0.00292969H144.512V2.83898H129.962V13.4702H144.512V16.3032H129.962V27.219Z" fill="white"/>
<path d="M153.446 27.219H167.997V30.0519H150.351V0.00292969H168V2.83898H153.446V13.4702H167.997V16.3032H153.446V27.219Z" fill="white"/>
<path d="M93.5444 34.6297C93.8906 34.6211 94.2347 34.6848 94.5532 34.8165C94.8718 34.9481 95.1574 35.1446 95.3906 35.3926C95.867 35.9086 96.1303 36.5765 96.1303 37.2687C96.1303 37.9609 95.867 38.6289 95.3906 39.1448C95.1574 39.3928 94.8718 39.5893 94.5532 39.721C94.2347 39.8526 93.8906 39.9163 93.5444 39.9078H91.4238V34.6297H93.5444ZM93.5444 39.2324C93.7996 39.2403 94.0534 39.194 94.2882 39.0968C94.5229 38.9996 94.7329 38.8537 94.9033 38.6695C95.2448 38.2753 95.432 37.7771 95.432 37.2625C95.432 36.7478 95.2448 36.2496 94.9033 35.8554C94.7329 35.6712 94.5229 35.5254 94.2882 35.4281C94.0534 35.3309 93.7996 35.2846 93.5444 35.2926H92.1468V39.2324H93.5444Z" fill="white"/>
<path d="M100.131 36.1334H100.809V39.8856H100.131V39.2384C99.9765 39.4769 99.7595 39.6715 99.502 39.8022C99.2446 39.9329 98.956 39.9952 98.6656 39.9825C98.405 39.9866 98.1465 39.9375 97.9068 39.8384C97.6671 39.7393 97.4516 39.5923 97.2745 39.4072C96.9026 39.0273 96.6953 38.5237 96.6953 38.0001C96.6953 37.4766 96.9026 36.973 97.2745 36.593C97.4516 36.4079 97.6671 36.261 97.9068 36.1619C98.1465 36.0627 98.405 36.0136 98.6656 36.0177C98.956 36.0051 99.2446 36.0673 99.502 36.1981C99.7595 36.3288 99.9765 36.5234 100.131 36.7619V36.1334ZM98.7495 39.3603C98.9328 39.3652 99.1152 39.3332 99.2852 39.2665C99.4552 39.1997 99.609 39.0997 99.7372 38.9726C99.99 38.7136 100.131 38.3707 100.131 38.0142C100.131 37.6577 99.99 37.3148 99.7372 37.0558C99.4743 36.8073 99.1216 36.6683 98.7543 36.6683C98.3871 36.6683 98.0344 36.8073 97.7715 37.0558C97.5164 37.3137 97.374 37.6571 97.374 38.0142C97.374 38.3714 97.5164 38.7147 97.7715 38.9726C97.8982 39.099 98.0504 39.1987 98.2187 39.2654C98.387 39.3321 98.5677 39.3644 98.7495 39.3603Z" fill="white"/>
<path d="M102.408 37.1404C102.41 37.2121 102.433 37.2818 102.473 37.3419C102.513 37.402 102.57 37.4502 102.637 37.4812C102.809 37.5751 102.992 37.6486 103.182 37.7001L103.828 37.8814C104.039 37.9409 104.228 38.0595 104.37 38.2223C104.525 38.4025 104.604 38.6323 104.593 38.8664C104.598 39.0248 104.563 39.182 104.492 39.3246C104.42 39.4672 104.314 39.5911 104.183 39.6856C103.883 39.9023 103.515 40.0127 103.14 39.9983C102.801 40.0083 102.465 39.9248 102.172 39.7575C101.917 39.614 101.715 39.3948 101.598 39.1322L102.179 38.8195C102.242 38.9971 102.366 39.1484 102.53 39.2479C102.715 39.3553 102.928 39.4095 103.144 39.4042C103.336 39.4113 103.526 39.3692 103.696 39.2823C103.765 39.2429 103.822 39.186 103.86 39.1177C103.898 39.0493 103.916 38.9721 103.912 38.8945C103.911 38.8216 103.89 38.7503 103.85 38.6884C103.81 38.6266 103.753 38.5767 103.686 38.5443C103.516 38.4474 103.334 38.3727 103.144 38.3223L102.498 38.1347C102.288 38.0756 102.099 37.9608 101.953 37.8032C101.798 37.6303 101.717 37.4066 101.727 37.1779C101.724 37.0236 101.758 36.8708 101.826 36.7314C101.895 36.592 101.995 36.4698 102.121 36.3743C102.395 36.1627 102.738 36.052 103.089 36.0616C103.384 36.0562 103.675 36.1275 103.931 36.268C104.172 36.4009 104.366 36.6015 104.486 36.8433L103.922 37.156C103.857 36.9988 103.743 36.8657 103.594 36.7762C103.446 36.6867 103.273 36.6456 103.099 36.6588C102.927 36.654 102.757 36.6986 102.611 36.787C102.549 36.8238 102.497 36.8757 102.461 36.9377C102.426 36.9996 102.407 37.0695 102.408 37.1404Z" fill="white"/>
<path d="M109.361 34.6295C109.593 34.6235 109.823 34.6634 110.039 34.7467C110.254 34.83 110.449 34.9551 110.613 35.1142C110.86 35.3522 111.028 35.6562 111.096 35.9873C111.164 36.3184 111.129 36.6616 110.994 36.973C110.86 37.2844 110.633 37.55 110.342 37.7358C110.051 37.9215 109.709 38.019 109.361 38.0159H108.108V39.892H107.389V34.6295H109.361ZM109.361 37.3592C109.501 37.3625 109.64 37.3363 109.769 37.2823C109.898 37.2283 110.013 37.1479 110.106 37.0465C110.296 36.8427 110.401 36.5782 110.401 36.3039C110.401 36.0297 110.296 35.7651 110.106 35.5613C110.01 35.4651 109.894 35.3893 109.765 35.3388C109.637 35.2882 109.499 35.2639 109.361 35.2674H108.108V37.3436L109.361 37.3592Z" fill="white"/>
<path d="M112.495 36.7651C112.597 36.5411 112.769 36.3536 112.987 36.2286C113.204 36.1037 113.456 36.0474 113.708 36.0678V36.7526C113.401 36.7297 113.095 36.8201 112.853 37.0058C112.726 37.1187 112.628 37.2583 112.566 37.414C112.504 37.5696 112.479 37.737 112.495 37.9032V39.895H111.82V36.1428H112.495V36.7651Z" fill="white"/>
<path d="M117.429 39.423C117.143 39.6977 116.779 39.8841 116.383 39.9587C115.987 40.0334 115.577 39.9929 115.205 39.8425C114.833 39.6921 114.516 39.4384 114.292 39.1133C114.068 38.7883 113.949 38.4065 113.949 38.0159C113.949 37.6254 114.068 37.2435 114.292 36.9185C114.516 36.5935 114.833 36.3398 115.205 36.1893C115.577 36.0389 115.987 35.9985 116.383 36.0731C116.779 36.1478 117.143 36.3342 117.429 36.6088C117.814 36.9823 118.03 37.4883 118.03 38.0159C118.03 38.5435 117.814 39.0496 117.429 39.423ZM115.98 39.3542C116.293 39.352 116.596 39.2448 116.837 39.0509C117.078 38.8569 117.242 38.5881 117.301 38.2902C117.361 37.9923 117.312 37.6836 117.163 37.4167C117.014 37.1497 116.774 36.941 116.485 36.8259C116.195 36.7107 115.873 36.6964 115.573 36.7853C115.274 36.8741 115.015 37.0607 114.842 37.3133C114.668 37.5659 114.59 37.8689 114.621 38.1709C114.652 38.4728 114.79 38.755 115.012 38.9696C115.138 39.0942 115.29 39.1926 115.457 39.2587C115.624 39.3248 115.803 39.3573 115.983 39.3542H115.98Z" fill="white"/>
<path d="M120.979 36.0333C121.24 36.0294 121.498 36.0786 121.738 36.1778C121.977 36.2769 122.193 36.4237 122.37 36.6087C122.742 36.9886 122.949 37.4922 122.949 38.0158C122.949 38.5393 122.742 39.0429 122.37 39.4228C122.193 39.6078 121.977 39.7546 121.738 39.8538C121.498 39.9529 121.24 40.0021 120.979 39.9982C120.689 40.0111 120.4 39.949 120.142 39.8183C119.885 39.6875 119.668 39.4927 119.514 39.254V39.9012H118.836V34.6294H119.514V36.7807C119.668 36.5413 119.884 36.3459 120.142 36.2146C120.399 36.0833 120.688 36.0207 120.979 36.0333ZM120.895 39.3572C121.075 39.36 121.254 39.327 121.421 39.2604C121.587 39.1937 121.738 39.0947 121.863 38.9695C122.119 38.7116 122.261 38.3682 122.261 38.0111C122.261 37.6539 122.119 37.3106 121.863 37.0527C121.601 36.8042 121.248 36.6651 120.881 36.6651C120.513 36.6651 120.161 36.8042 119.898 37.0527C119.645 37.3117 119.504 37.6546 119.504 38.0111C119.504 38.3675 119.645 38.7105 119.898 38.9695C120.026 39.0975 120.18 39.1984 120.351 39.2657C120.522 39.3329 120.705 39.3652 120.889 39.3603L120.895 39.3572Z" fill="white"/>
<path d="M124.207 38.3161C124.26 38.6255 124.43 38.9045 124.685 39.0978C124.952 39.2896 125.279 39.3877 125.611 39.3761C125.832 39.3921 126.052 39.3495 126.25 39.2531C126.447 39.1567 126.613 39.0101 126.731 38.8289L127.306 39.1416C127.124 39.4171 126.871 39.6408 126.571 39.7897C126.271 39.9386 125.935 40.0074 125.598 39.989C125.321 40.0003 125.045 39.9564 124.786 39.8601C124.528 39.7639 124.292 39.6172 124.094 39.4293C123.726 39.0438 123.521 38.538 123.521 38.0128C123.521 37.4877 123.726 36.9818 124.094 36.5964C124.285 36.4092 124.513 36.2625 124.766 36.1656C125.018 36.0687 125.288 36.0237 125.56 36.0335C125.822 36.025 126.083 36.073 126.325 36.1741C126.566 36.2752 126.781 36.4269 126.954 36.6183C127.311 37.0016 127.504 37.5026 127.493 38.0191C127.493 38.1175 127.486 38.2158 127.47 38.313L124.207 38.3161ZM125.563 36.6589C125.238 36.6438 124.92 36.7477 124.671 36.95C124.422 37.1523 124.261 37.438 124.22 37.7502H126.802C126.767 37.436 126.611 37.146 126.366 36.9372C126.14 36.7564 125.856 36.6579 125.563 36.6589Z" fill="white"/>
<path d="M130.153 35.1642C129.468 35.1079 129.13 35.3956 129.13 36.021V36.1335H130.153V36.7589H129.13V39.8858H128.452V36.7589H127.832V36.1335H128.452V36.0335C128.437 35.8225 128.468 35.6108 128.543 35.4124C128.619 35.214 128.738 35.0335 128.891 34.8828C129.066 34.7456 129.268 34.6447 129.485 34.5866C129.703 34.5285 129.93 34.5144 130.153 34.5451V35.1642Z" fill="white"/>
<path d="M133.67 36.1336H134.344V39.8858H133.67V39.2386C133.515 39.4771 133.297 39.6717 133.039 39.8024C132.781 39.9331 132.492 39.9953 132.201 39.9828C131.941 39.9866 131.683 39.9374 131.444 39.8383C131.205 39.7391 130.99 39.5923 130.813 39.4074C130.439 39.0286 130.23 38.5246 130.23 38.0003C130.23 37.4761 130.439 36.9721 130.813 36.5933C130.99 36.4084 131.205 36.2616 131.444 36.1624C131.683 36.0633 131.941 36.0141 132.201 36.0179C132.492 36.0054 132.781 36.0676 133.039 36.1983C133.297 36.3291 133.515 36.5236 133.67 36.7621V36.1336ZM132.275 39.3605C132.458 39.3653 132.64 39.3333 132.81 39.2666C132.979 39.1999 133.132 39.0998 133.26 38.9728C133.515 38.7149 133.657 38.3716 133.657 38.0144C133.657 37.6573 133.515 37.3139 133.26 37.0561C132.997 36.8076 132.644 36.6685 132.277 36.6685C131.91 36.6685 131.557 36.8076 131.294 37.0561C131.041 37.315 130.9 37.658 130.9 38.0144C130.9 38.3709 131.041 38.7138 131.294 38.9728C131.421 39.0996 131.574 39.1995 131.743 39.2662C131.912 39.333 132.093 39.3651 132.275 39.3605Z" fill="white"/>
<path d="M137.306 36.0333C137.508 36.0248 137.71 36.0577 137.899 36.1299C138.087 36.2021 138.258 36.312 138.4 36.4523C138.542 36.6053 138.652 36.7841 138.723 36.9783C138.794 37.1726 138.825 37.3785 138.813 37.5843V39.8919H138.135V37.6218C138.144 37.4925 138.126 37.3628 138.082 37.2404C138.038 37.1179 137.97 37.0052 137.88 36.9089C137.786 36.8236 137.674 36.7575 137.553 36.7145C137.431 36.6716 137.302 36.6526 137.173 36.6587C137.022 36.6536 136.872 36.6787 136.731 36.7325C136.591 36.7863 136.463 36.8676 136.357 36.9714C136.242 37.0995 136.154 37.2484 136.099 37.4093C136.044 37.5703 136.022 37.7402 136.034 37.9094V39.9012H135.359V34.6294H136.034V36.6743C136.165 36.465 136.353 36.2946 136.577 36.1815C136.802 36.0685 137.053 36.0173 137.306 36.0333Z" fill="white"/>
<path d="M140.427 36.7651C140.529 36.5416 140.7 36.3545 140.917 36.2296C141.134 36.1047 141.385 36.0481 141.637 36.0678V36.7526C141.329 36.7297 141.024 36.8201 140.782 37.0058C140.656 37.1194 140.558 37.2593 140.497 37.4148C140.435 37.5703 140.411 37.7374 140.427 37.9032V39.895H139.752V36.1428H140.427V36.7651Z" fill="white"/>
<path d="M144.502 36.7652H143.47V38.8039C143.456 38.9452 143.496 39.0865 143.582 39.201C143.629 39.242 143.684 39.2736 143.743 39.294C143.802 39.3144 143.865 39.3232 143.928 39.3198C144.083 39.3198 144.273 39.3198 144.502 39.3198V39.9045C144.068 39.9978 143.614 39.9494 143.211 39.767C143.066 39.6575 142.952 39.5138 142.88 39.3496C142.809 39.1854 142.781 39.0062 142.801 38.8289V36.7902H142.033V36.1648H142.801V35.3081L143.476 35.1111V36.1648H144.509L144.502 36.7652Z" fill="white"/>
<path d="M149.308 34.6294C149.654 34.6298 149.992 34.7291 150.28 34.9148C150.568 35.1005 150.794 35.3644 150.928 35.6735C151.062 35.9826 151.099 36.3231 151.034 36.6524C150.969 36.9817 150.806 37.2852 150.564 37.5249C150.401 37.686 150.205 37.8129 149.989 37.8973C149.773 37.9818 149.541 38.0221 149.308 38.0158H148.059V39.8919H147.336V34.6294H149.308ZM149.308 37.3591C149.448 37.3624 149.588 37.3362 149.716 37.2822C149.845 37.2282 149.96 37.1478 150.054 37.0464C150.243 36.8426 150.348 36.5781 150.348 36.3038C150.348 36.0296 150.243 35.765 150.054 35.5612C149.957 35.465 149.841 35.3892 149.713 35.3387C149.584 35.2881 149.447 35.2638 149.308 35.2673H148.059V37.3435L149.308 37.3591Z" fill="white"/>
<path d="M154.831 39.423C154.442 39.789 153.921 39.9937 153.378 39.9937C152.836 39.9937 152.315 39.789 151.926 39.423C151.636 39.1463 151.438 38.792 151.357 38.4055C151.276 38.0191 151.316 37.618 151.473 37.2538C151.629 36.8897 151.893 36.5789 152.233 36.3615C152.573 36.1441 152.971 36.0299 153.378 36.0335C153.648 36.0289 153.915 36.0772 154.165 36.1756C154.415 36.2739 154.641 36.4202 154.831 36.6057C155.213 36.9803 155.428 37.4859 155.428 38.0128C155.428 38.5397 155.213 39.0453 154.831 39.4199V39.423ZM153.378 39.3542C153.692 39.352 153.994 39.2448 154.235 39.0509C154.476 38.8569 154.64 38.5881 154.7 38.2902C154.759 37.9923 154.71 37.6836 154.561 37.4167C154.412 37.1497 154.173 36.941 153.883 36.8259C153.593 36.7108 153.271 36.6964 152.972 36.7853C152.672 36.8742 152.414 37.0607 152.24 37.3133C152.067 37.5659 151.989 37.8689 152.02 38.1709C152.051 38.4728 152.189 38.7551 152.41 38.9696C152.536 39.0938 152.687 39.192 152.854 39.2581C153.02 39.3242 153.199 39.3569 153.378 39.3542Z" fill="white"/>
<path d="M156.903 36.7651C157.005 36.5416 157.177 36.3545 157.394 36.2296C157.61 36.1047 157.862 36.0481 158.113 36.0678V36.7526C157.807 36.7299 157.502 36.8203 157.261 37.0058C157.134 37.1193 157.035 37.26 156.972 37.4168C156.91 37.5736 156.887 37.7423 156.903 37.9095V39.9013H156.229V36.1491H156.903V36.7651Z" fill="white"/>
<path d="M160.979 36.7652H159.946V38.8039C159.932 38.9452 159.972 39.0865 160.059 39.201C160.106 39.242 160.16 39.2736 160.219 39.294C160.279 39.3144 160.342 39.3232 160.404 39.3198C160.559 39.3198 160.75 39.3198 160.979 39.3198V39.9045C160.545 39.9978 160.091 39.9494 159.688 39.767C159.543 39.6575 159.429 39.5138 159.357 39.3496C159.285 39.1854 159.258 39.0062 159.278 38.8289V36.7902H158.51V36.1648H159.278V35.3081L159.953 35.1111V36.1648H160.985L160.979 36.7652Z" fill="white"/>
<path d="M164.802 36.1336H165.477V39.8858H164.802V39.2386C164.647 39.4771 164.429 39.6717 164.171 39.8024C163.913 39.9331 163.624 39.9953 163.334 39.9828C163.073 39.9867 162.814 39.9375 162.575 39.8384C162.335 39.7392 162.12 39.5924 161.942 39.4074C161.571 39.0275 161.363 38.5239 161.363 38.0003C161.363 37.4768 161.571 36.9732 161.942 36.5933C162.12 36.4083 162.335 36.2615 162.575 36.1624C162.814 36.0632 163.073 36.014 163.334 36.0179C163.624 36.0054 163.913 36.0676 164.171 36.1983C164.429 36.3291 164.647 36.5236 164.802 36.7621V36.1336ZM163.417 39.3605C163.6 39.3635 163.782 39.3307 163.952 39.2642C164.121 39.1976 164.275 39.0986 164.405 38.9731C164.534 38.8477 164.636 38.6982 164.704 38.5338C164.772 38.3693 164.806 38.1932 164.802 38.016C164.807 37.8383 164.774 37.6615 164.706 37.4965C164.637 37.3314 164.535 37.1816 164.405 37.0561C164.142 36.8076 163.79 36.6685 163.422 36.6685C163.055 36.6685 162.702 36.8076 162.439 37.0561C162.187 37.315 162.046 37.658 162.046 38.0144C162.046 38.3709 162.187 38.7138 162.439 38.9728C162.566 39.0992 162.718 39.1989 162.887 39.2656C163.055 39.3323 163.236 39.3646 163.417 39.3605Z" fill="white"/>
<path d="M166.49 39.8953V34.4045H167.168V39.8953H166.49Z" fill="white"/>
<path d="M85.2873 37.6221H8.76581C8.65025 37.6221 8.53942 37.5776 8.4577 37.4984C8.37598 37.4193 8.33008 37.3119 8.33008 37.1999C8.33008 37.088 8.37598 36.9806 8.4577 36.9015C8.53942 36.8223 8.65025 36.7778 8.76581 36.7778H85.2873C85.4028 36.7778 85.5137 36.8223 85.5954 36.9015C85.6771 36.9806 85.723 37.088 85.723 37.1999C85.723 37.3119 85.6771 37.4193 85.5954 37.4984C85.5137 37.5776 85.4028 37.6221 85.2873 37.6221Z" fill="white"/>
</svg>
