<svg width="193" height="135" viewBox="0 0 193 135" fill="none" xmlns="http://www.w3.org/2000/svg">
<rect x="0.5" y="0.5" width="192" height="134" rx="3.5" fill="#EDEEF0" stroke="#BBC0C4" stroke-dasharray="7 7"/>
<path d="M45.6657 93.196C44.7137 93.196 43.8644 92.986 43.1177 92.566C42.3711 92.146 41.7831 91.5533 41.3537 90.788C40.9337 90.0133 40.7237 89.1173 40.7237 88.1C40.7237 87.0827 40.9384 86.1913 41.3677 85.426C41.7971 84.6513 42.3897 84.054 43.1457 83.634C43.9017 83.214 44.7604 83.004 45.7217 83.004C46.1977 83.004 46.6644 83.0553 47.1217 83.158C47.5791 83.2607 47.9851 83.4007 48.3397 83.578L48.1997 84.81C47.3597 84.4087 46.5291 84.208 45.7077 84.208C44.9611 84.208 44.3217 84.3807 43.7897 84.726C43.2577 85.062 42.8564 85.524 42.5857 86.112C42.3151 86.7 42.1797 87.3627 42.1797 88.1C42.1797 88.8373 42.3151 89.5 42.5857 90.088C42.8564 90.676 43.2531 91.1427 43.7757 91.488C44.2984 91.824 44.9331 91.992 45.6797 91.992C46.5571 91.992 47.3971 91.796 48.1997 91.404L48.3397 92.636C47.5277 93.0093 46.6364 93.196 45.6657 93.196ZM51.4227 93.14C50.8067 93.14 50.354 92.9813 50.0647 92.664C49.7847 92.3467 49.6447 91.9547 49.6447 91.488V82.5H50.9047V90.76C50.9047 91.1707 50.928 91.4693 50.9747 91.656C51.0307 91.8427 51.1334 91.9687 51.2827 92.034C51.432 92.0993 51.6747 92.132 52.0107 92.132L51.8287 93.14H51.4227ZM52.9673 83.2H54.2273V84.6H52.9673V83.2ZM52.9673 86.14H54.2273V93H52.9673V86.14ZM59.0841 93.14C58.3374 93.14 57.6934 92.986 57.1521 92.678C56.6201 92.37 56.2187 91.95 55.9481 91.418C55.6774 90.8767 55.5421 90.2747 55.5421 89.612C55.5421 88.5293 55.8454 87.6567 56.4521 86.994C57.0681 86.3313 57.9781 86 59.1821 86C59.8914 86 60.5167 86.1353 61.0581 86.406L60.8621 87.512C60.2927 87.2507 59.7234 87.12 59.1541 87.12C58.4074 87.12 57.8334 87.3347 57.4321 87.764C57.0307 88.184 56.8301 88.7813 56.8301 89.556C56.8301 90.3307 57.0214 90.9373 57.4041 91.376C57.7961 91.8147 58.3701 92.034 59.1261 92.034C59.7327 92.034 60.3161 91.894 60.8761 91.614L61.0441 92.622C60.8387 92.762 60.5541 92.8833 60.1901 92.986C59.8354 93.0887 59.4667 93.14 59.0841 93.14ZM62.2775 82.5H63.5375V89.234L66.0575 86.14H67.5975L64.8675 89.332L67.6675 93H66.1275L63.5375 89.514V93H62.2775V82.5ZM74.0774 93.14C73.4708 93.14 73.0181 92.9813 72.7194 92.664C72.4301 92.3467 72.2854 91.9593 72.2854 91.502V87.12H71.1094L71.2214 86.14H72.2854V84.446L73.5454 84.32V86.14H75.3514V87.12H73.5454V90.732C73.5454 91.208 73.5734 91.5347 73.6294 91.712C73.6854 91.8893 73.8021 92.006 73.9794 92.062C74.1661 92.1087 74.5021 92.132 74.9874 92.132H75.3094L75.2114 93.14H74.0774ZM79.3695 93.14C78.6695 93.14 78.0629 92.986 77.5495 92.678C77.0362 92.3607 76.6442 91.9313 76.3735 91.39C76.1029 90.8487 75.9675 90.242 75.9675 89.57C75.9675 88.898 76.1029 88.2913 76.3735 87.75C76.6442 87.2087 77.0362 86.784 77.5495 86.476C78.0629 86.1587 78.6695 86 79.3695 86C80.0602 86 80.6622 86.1587 81.1755 86.476C81.6982 86.784 82.0949 87.2087 82.3655 87.75C82.6362 88.2913 82.7715 88.898 82.7715 89.57C82.7715 90.242 82.6362 90.8487 82.3655 91.39C82.0949 91.9313 81.6982 92.3607 81.1755 92.678C80.6622 92.986 80.0602 93.14 79.3695 93.14ZM79.3695 92.02C80.0415 92.02 80.5595 91.8053 80.9235 91.376C81.2969 90.9467 81.4835 90.3447 81.4835 89.57C81.4835 88.7953 81.2969 88.1933 80.9235 87.764C80.5595 87.3347 80.0415 87.12 79.3695 87.12C78.6975 87.12 78.1749 87.3347 77.8015 87.764C77.4375 88.1933 77.2555 88.7953 77.2555 89.57C77.2555 90.3447 77.4375 90.9467 77.8015 91.376C78.1749 91.8053 78.6975 92.02 79.3695 92.02ZM89.1613 93.14C88.62 93.14 88.144 93.0793 87.7333 92.958C87.332 92.8273 87.024 92.6873 86.8093 92.538L86.9633 91.32C87.15 91.488 87.4347 91.6467 87.8173 91.796C88.2093 91.9453 88.6387 92.02 89.1053 92.02C89.544 92.02 89.88 91.9453 90.1133 91.796C90.356 91.6467 90.4773 91.4367 90.4773 91.166C90.4773 90.8487 90.3467 90.6107 90.0853 90.452C89.824 90.284 89.4973 90.144 89.1053 90.032C88.676 89.92 88.312 89.8033 88.0133 89.682C87.724 89.5513 87.472 89.3553 87.2573 89.094C87.052 88.8327 86.9493 88.4873 86.9493 88.058C86.9493 87.47 87.1593 86.98 87.5793 86.588C87.9993 86.196 88.648 86 89.5253 86C89.9267 86 90.2673 86.042 90.5473 86.126C90.8273 86.2007 91.1073 86.308 91.3873 86.448L91.2333 87.596C91.0093 87.4093 90.762 87.2647 90.4913 87.162C90.2207 87.05 89.908 86.994 89.5533 86.994C89.1427 86.994 88.816 87.0733 88.5733 87.232C88.34 87.3813 88.2233 87.61 88.2233 87.918C88.2233 88.1233 88.2793 88.2913 88.3913 88.422C88.5033 88.5433 88.662 88.646 88.8673 88.73C89.0727 88.814 89.39 88.9213 89.8193 89.052C90.3513 89.2107 90.8087 89.4347 91.1913 89.724C91.5833 90.0133 91.7793 90.4707 91.7793 91.096C91.7793 91.656 91.5787 92.1367 91.1773 92.538C90.7853 92.9393 90.1133 93.14 89.1613 93.14ZM96.3022 93.14C95.5182 93.14 94.8462 92.9813 94.2862 92.664C93.7355 92.3373 93.3155 91.8987 93.0262 91.348C92.7369 90.7973 92.5922 90.186 92.5922 89.514C92.5922 88.87 92.7229 88.282 92.9842 87.75C93.2549 87.2087 93.6422 86.784 94.1462 86.476C94.6595 86.1587 95.2615 86 95.9522 86C96.8295 86 97.5389 86.2567 98.0802 86.77C98.6309 87.2833 98.9062 87.9927 98.9062 88.898C98.9062 89.1313 98.8875 89.3553 98.8502 89.57H93.8802C93.9642 90.4567 94.2349 91.0867 94.6922 91.46C95.1495 91.8333 95.7375 92.02 96.4562 92.02C97.1749 92.02 97.8329 91.8847 98.4302 91.614L98.5982 92.608C97.8049 92.9627 97.0395 93.14 96.3022 93.14ZM97.6042 88.702C97.6042 88.2073 97.4642 87.82 97.1842 87.54C96.9042 87.26 96.4842 87.12 95.9242 87.12C95.3829 87.12 94.9582 87.2553 94.6502 87.526C94.3422 87.7873 94.1229 88.1793 93.9922 88.702H97.6042ZM101.94 93.14C101.324 93.14 100.872 92.9813 100.582 92.664C100.302 92.3467 100.162 91.9547 100.162 91.488V82.5H101.422V90.76C101.422 91.1707 101.446 91.4693 101.492 91.656C101.548 91.8427 101.651 91.9687 101.8 92.034C101.95 92.0993 102.192 92.132 102.528 92.132L102.346 93.14H101.94ZM106.707 93.14C105.923 93.14 105.251 92.9813 104.691 92.664C104.14 92.3373 103.72 91.8987 103.431 91.348C103.141 90.7973 102.997 90.186 102.997 89.514C102.997 88.87 103.127 88.282 103.389 87.75C103.659 87.2087 104.047 86.784 104.551 86.476C105.064 86.1587 105.666 86 106.357 86C107.234 86 107.943 86.2567 108.485 86.77C109.035 87.2833 109.311 87.9927 109.311 88.898C109.311 89.1313 109.292 89.3553 109.255 89.57H104.285C104.369 90.4567 104.639 91.0867 105.097 91.46C105.554 91.8333 106.142 92.02 106.861 92.02C107.579 92.02 108.237 91.8847 108.835 91.614L109.003 92.608C108.209 92.9627 107.444 93.14 106.707 93.14ZM108.009 88.702C108.009 88.2073 107.869 87.82 107.589 87.54C107.309 87.26 106.889 87.12 106.329 87.12C105.787 87.12 105.363 87.2553 105.055 87.526C104.747 87.7873 104.527 88.1793 104.397 88.702H108.009ZM113.731 93.14C112.984 93.14 112.34 92.986 111.799 92.678C111.267 92.37 110.865 91.95 110.595 91.418C110.324 90.8767 110.189 90.2747 110.189 89.612C110.189 88.5293 110.492 87.6567 111.099 86.994C111.715 86.3313 112.625 86 113.829 86C114.538 86 115.163 86.1353 115.705 86.406L115.509 87.512C114.939 87.2507 114.37 87.12 113.801 87.12C113.054 87.12 112.48 87.3347 112.079 87.764C111.677 88.184 111.477 88.7813 111.477 89.556C111.477 90.3307 111.668 90.9373 112.051 91.376C112.443 91.8147 113.017 92.034 113.773 92.034C114.379 92.034 114.963 91.894 115.523 91.614L115.691 92.622C115.485 92.762 115.201 92.8833 114.837 92.986C114.482 93.0887 114.113 93.14 113.731 93.14ZM119.304 93.14C118.697 93.14 118.245 92.9813 117.946 92.664C117.657 92.3467 117.512 91.9593 117.512 91.502V87.12H116.336L116.448 86.14H117.512V84.446L118.772 84.32V86.14H120.578V87.12H118.772V90.732C118.772 91.208 118.8 91.5347 118.856 91.712C118.912 91.8893 119.029 92.006 119.206 92.062C119.393 92.1087 119.729 92.132 120.214 92.132H120.536L120.438 93.14H119.304ZM126.395 93.14C125.761 93.14 125.247 92.9533 124.855 92.58C124.473 92.2067 124.281 91.7307 124.281 91.152C124.281 90.284 124.692 89.6633 125.513 89.29C126.335 88.9167 127.291 88.7207 128.383 88.702C128.383 88.086 128.262 87.6707 128.019 87.456C127.786 87.232 127.408 87.12 126.885 87.12C126.596 87.12 126.307 87.1667 126.017 87.26C125.728 87.344 125.415 87.5027 125.079 87.736L124.897 86.714C125.177 86.4993 125.523 86.3267 125.933 86.196C126.344 86.0653 126.773 86 127.221 86C127.809 86 128.276 86.1027 128.621 86.308C128.976 86.5133 129.233 86.854 129.391 87.33C129.559 87.806 129.643 88.4593 129.643 89.29V90.69C129.643 91.0633 129.657 91.348 129.685 91.544C129.723 91.7307 129.797 91.8753 129.909 91.978C130.021 92.0807 130.194 92.132 130.427 92.132H130.553L130.357 93.14H130.259C129.867 93.14 129.559 93.1027 129.335 93.028C129.111 92.9533 128.939 92.846 128.817 92.706C128.705 92.566 128.598 92.3747 128.495 92.132C127.917 92.804 127.217 93.14 126.395 93.14ZM126.633 92.132C126.969 92.132 127.291 92.048 127.599 91.88C127.917 91.712 128.178 91.488 128.383 91.208V89.57C127.375 89.6073 126.652 89.7427 126.213 89.976C125.784 90.2 125.569 90.5687 125.569 91.082C125.569 91.4367 125.663 91.7027 125.849 91.88C126.045 92.048 126.307 92.132 126.633 92.132ZM135.146 87.12H133.956L134.124 86.14H135.146V84.516C135.146 83.8907 135.31 83.4007 135.636 83.046C135.972 82.682 136.453 82.5 137.078 82.5C137.489 82.5 137.853 82.5607 138.17 82.682L137.974 83.746C137.75 83.662 137.517 83.62 137.274 83.62C136.696 83.62 136.406 83.9467 136.406 84.6V86.14H138.254V87.12H136.406V93H135.146V87.12ZM139.305 83.2H140.565V84.6H139.305V83.2ZM139.305 86.14H140.565V93H139.305V86.14ZM144.036 93.14C143.42 93.14 142.967 92.9813 142.678 92.664C142.398 92.3467 142.258 91.9547 142.258 91.488V82.5H143.518V90.76C143.518 91.1707 143.541 91.4693 143.588 91.656C143.644 91.8427 143.747 91.9687 143.896 92.034C144.045 92.0993 144.288 92.132 144.624 92.132L144.442 93.14H144.036ZM148.802 93.14C148.018 93.14 147.346 92.9813 146.786 92.664C146.236 92.3373 145.816 91.8987 145.526 91.348C145.237 90.7973 145.092 90.186 145.092 89.514C145.092 88.87 145.223 88.282 145.484 87.75C145.755 87.2087 146.142 86.784 146.646 86.476C147.16 86.1587 147.762 86 148.452 86C149.33 86 150.039 86.2567 150.58 86.77C151.131 87.2833 151.406 87.9927 151.406 88.898C151.406 89.1313 151.388 89.3553 151.35 89.57H146.38C146.464 90.4567 146.735 91.0867 147.192 91.46C147.65 91.8333 148.238 92.02 148.956 92.02C149.675 92.02 150.333 91.8847 150.93 91.614L151.098 92.608C150.305 92.9627 149.54 93.14 148.802 93.14ZM150.104 88.702C150.104 88.2073 149.964 87.82 149.684 87.54C149.404 87.26 148.984 87.12 148.424 87.12C147.883 87.12 147.458 87.2553 147.15 87.526C146.842 87.7873 146.623 88.1793 146.492 88.702H150.104Z" fill="#64696C"/>
<path d="M103.237 60.6655L96.5099 53.9979L89.7832 60.6655" stroke="#BBC0C4" stroke-width="1.6" stroke-linecap="round" stroke-linejoin="round"/>
<path d="M96.5078 53.9979V69" stroke="#BBC0C4" stroke-width="1.6" stroke-linecap="round" stroke-linejoin="round"/>
<path d="M110.616 64.6494C112.257 63.7631 113.552 62.3605 114.299 60.6632C115.046 58.9659 115.201 57.0704 114.74 55.2759C114.279 53.4815 113.229 51.8902 111.754 50.7532C110.28 49.6163 108.465 48.9985 106.597 48.9973H104.478C103.969 47.0457 103.021 45.234 101.704 43.6982C100.386 42.1624 98.7352 40.9426 96.874 40.1304C95.0129 39.3182 92.9901 38.9348 90.958 39.009C88.9258 39.0833 86.937 39.6132 85.1412 40.5589C83.3454 41.5046 81.7892 42.8416 80.5897 44.4693C79.3902 46.097 78.5785 47.973 78.2158 49.9564C77.853 51.9397 77.9486 53.9788 78.4953 55.9203C79.042 57.8618 80.0257 59.6551 81.3723 61.1656" stroke="#BBC0C4" stroke-width="1.6" stroke-linecap="round" stroke-linejoin="round"/>
<path d="M103.237 60.6655L96.5099 53.9979L89.7832 60.6655" stroke="#BBC0C4" stroke-width="1.6" stroke-linecap="round" stroke-linejoin="round"/>
</svg>
