<svg width="482" height="330" viewBox="0 0 482 330" fill="none" xmlns="http://www.w3.org/2000/svg">
<path d="M1.27825 322C63.8144 322 126.307 322 188.843 322C251.029 322 313.26 322 375.446 322C410.538 322 445.63 322 480.722 322C482.426 322 482.426 321 480.722 321C418.186 321 355.693 321 293.157 321C230.971 321 168.74 321 106.554 321C71.4621 321 36.3701 321 1.27825 321C-0.426085 321 -0.426085 322 1.27825 322Z" fill="#BBC0C4"/>
<path d="M56.4111 299.358C85.1454 282.157 112.57 262.422 139.396 241.871C166.26 221.278 192.637 199.869 219.463 179.194C234.504 167.632 249.694 156.273 265.184 145.446C265.782 145.037 265.221 143.975 264.622 144.383C236.973 163.709 210.334 184.669 183.732 205.671C157.168 226.672 130.604 247.754 103.104 267.244C87.6895 278.153 72.0129 288.612 55.8873 298.255C55.2138 298.664 55.775 299.726 56.4111 299.358Z" fill="#1E1E1E"/>
<path d="M40.6234 290.293C38.4276 291.502 36.9636 293.077 36.1951 293.92C35.0239 295.202 34.2188 296.044 33.5966 297.326C32.6451 299.377 32.7549 301.685 33.0476 306.227C33.2672 309.597 33.4868 309.267 33.3404 310.036C32.5353 314.212 27.9605 314.981 28.0703 317.801C28.1435 319.56 29.9002 320.988 31.4007 321.501C33.7064 322.307 36.4879 321.281 38.1348 318.9C36.3781 319.779 33.8162 321.464 32.2059 324.468C31.6203 325.567 30.8518 326.995 31.3641 327.691C32.2425 328.9 36.2317 327.471 39.7817 325.933C39.5987 326.776 39.5621 327.801 40.1477 328.534C41.575 330.328 45.7838 328.9 46.8817 328.534C48.126 328.094 48.309 327.874 53.9086 324.358C56.8364 322.527 57.8611 321.904 59.5447 320.659C60.972 319.596 62.0699 318.681 62.8751 317.985C65.5101 318.058 68.6942 317.911 72.2076 317.252C78.8318 315.97 83.919 313.369 87.1762 311.318C87.4324 312.38 87.652 313.479 87.9082 314.541C84.7241 316.519 82.2721 317.985 80.5885 318.974C79.5272 319.596 78.4293 320.256 78.5391 320.732C78.722 321.428 81.2107 321.391 82.7844 321.391C84.5411 321.391 86.0051 321.171 87.0298 321.025C87.103 321.281 87.3592 321.977 88.0546 322.307C89.0793 322.856 90.3968 322.234 90.3602 322.124C90.3602 322.05 89.8113 322.05 89.8113 322.014C89.8113 321.941 93.8005 321.941 96.5453 321.721C98.851 321.538 102.218 321.098 106.354 319.779C107.049 316.959 107.195 314.761 107.195 313.223C107.195 312.087 107.122 311.501 107.305 310.366C107.635 308.131 108.33 307.399 108.696 305.751C108.952 304.652 109.025 303.003 108.33 300.842C109.538 300.366 110.343 299.707 110.819 299.267C110.928 299.157 113.417 296.74 113.124 293.443C113.051 292.747 112.978 291.832 112.392 291.502C111.441 290.989 109.794 292.308 108.989 293.26C107.561 294.909 107.488 296.96 107.525 297.875C106.537 296.337 104.56 293.7 101.157 292.051C99.8025 291.392 98.4484 290.989 96.9845 290.769C90.104 289.597 82.0159 291.978 76.9287 293.81C70.2679 296.227 67.0839 298.315 62.9849 297.619C61.7405 297.399 59.0323 296.923 57.1658 294.835C56.4338 294.029 56.3606 293.553 55.4091 292.418C55.0797 292.015 53.3596 290 51.1637 289.011C46.6987 286.96 41.6482 289.744 40.6234 290.293Z" fill="white"/>
<path d="M59.3629 296.924C58.5211 298.865 57.35 300.624 55.886 302.199C55.4103 302.711 56.1788 303.481 56.6546 302.968C58.1917 301.356 59.3995 299.525 60.2778 297.474C60.6072 296.814 59.6556 296.265 59.3629 296.924Z" fill="#F4BD42"/>
<path d="M59.8734 297.364C59.0316 299.708 57.7507 301.759 56.0306 303.517C55.5548 304.03 56.3234 304.799 56.7991 304.286C58.6656 302.382 60.0198 300.147 60.9347 297.657C61.1543 296.997 60.093 296.704 59.8734 297.364Z" fill="#F4BD42"/>
<path d="M41.8322 298.902C42.5275 303.371 43.1863 307.986 45.3456 312.052C46.8827 314.982 50.1033 317.766 53.5435 315.971C56.9472 314.176 57.4229 309.781 57.2034 306.338C56.9472 302.565 55.6296 298.939 52.8848 296.265C52.3724 295.789 51.6039 296.558 52.1162 297.034C54.4219 299.305 55.6662 302.309 56.0322 305.495C56.3982 308.755 56.2884 313.48 52.8482 315.092C48.676 316.997 46.0775 311.502 45.0528 308.426C43.9548 305.239 43.4425 301.942 42.9667 298.609C42.7837 297.913 41.7224 298.206 41.8322 298.902Z" fill="#1E1E1E"/>
<path d="M40.4398 289.708C36.3042 292.602 32.5346 296.338 31.9856 301.612C31.8758 302.858 31.949 304.103 32.2418 305.275C32.681 306.997 33.6325 308.425 32.6078 310.184C30.9975 312.967 28.6918 315.568 26.7887 318.169C26.3861 318.755 27.3376 319.304 27.7402 318.718C29.5335 316.264 31.4 313.846 33.1201 311.356C34.5841 309.268 34.1815 307.876 33.4861 305.532C31.5098 299.195 36.231 293.957 41.0253 290.624C41.5743 290.258 41.0253 289.305 40.4398 289.708Z" fill="#1E1E1E"/>
<path d="M26.753 319.121C28.2901 320.513 29.9736 322.015 32.1329 322.235C34.1092 322.418 36.0123 321.355 37.5494 320.257C41.0262 317.802 43.5149 314.323 45.1252 310.403C45.3814 309.744 44.32 309.451 44.0639 310.11C42.7829 313.26 40.8066 316.154 38.2082 318.352C36.7442 319.561 34.8411 321.026 32.8648 321.136C30.7056 321.282 28.9854 319.671 27.5215 318.315C27.0091 317.876 26.2406 318.645 26.753 319.121Z" fill="#1E1E1E"/>
<path d="M33.7793 306.155C34.3285 307.18 34.9509 308.133 35.7197 308.975C36.1956 309.524 36.9645 308.719 36.4885 308.206C35.7929 307.4 35.2071 306.521 34.7312 305.605C34.3651 304.983 33.4498 305.532 33.7793 306.155Z" fill="#1E1E1E"/>
<path d="M28.4369 317.18C29.1691 318.022 29.3888 319.084 29.2789 320.147C29.2057 320.843 30.3041 320.843 30.3773 320.147C30.5237 318.791 30.121 317.436 29.2057 316.411C28.7298 315.898 27.9609 316.667 28.4369 317.18Z" fill="#1E1E1E"/>
<path d="M27.4484 318.792C27.8877 319.121 28.2904 319.487 28.7298 319.817C29.1691 320.183 29.9745 319.707 29.6084 319.158C29.3155 318.718 29.1325 318.205 29.1325 317.656C28.803 317.766 28.4369 317.839 28.1074 317.949C28.2172 318.096 28.327 318.242 28.4003 318.389C28.803 318.975 29.7549 318.425 29.3522 317.839C29.2423 317.693 29.1325 317.546 29.0593 317.4C28.7664 316.997 28.0341 317.107 28.0341 317.693C28.0341 318.425 28.2538 319.121 28.6565 319.744C28.9494 319.524 29.2423 319.304 29.5352 319.085C29.0959 318.755 28.6932 318.389 28.2538 318.059C28.0341 317.876 27.7046 317.839 27.485 318.059C27.2653 318.205 27.2287 318.608 27.4484 318.792Z" fill="#1E1E1E"/>
<path d="M49.1876 288.902C52.335 289.671 54.4577 292.089 56.3608 294.543C58.1907 296.85 59.435 298.096 62.5093 297.913C68.8773 297.51 74.9526 295.092 80.9913 293.261C87.213 291.393 95.0815 289.342 101.23 292.492C107.598 295.752 109.977 303.59 106.793 309.927C106.464 310.55 107.415 311.099 107.744 310.476C112.319 301.319 106.244 291.026 96.2893 289.964C84.8707 288.755 74.55 295.532 63.4242 296.704C61.3381 296.924 59.5814 296.814 58.1175 295.056C57.2391 293.993 56.434 292.858 55.519 291.832C53.8355 289.964 51.8958 288.426 49.4071 287.803C48.785 287.657 48.4922 288.719 49.1876 288.902Z" fill="#1E1E1E"/>
<path d="M95.9226 299.378C93.0679 301.649 90.9818 304.616 91.2014 308.426C91.421 311.795 93.4339 314.689 96.4349 316.227C97.0571 316.557 97.6061 315.605 96.9839 315.275C94.1658 313.81 92.2627 311.063 92.2993 307.803C92.3359 304.506 94.239 302.089 96.6911 300.147C97.2401 299.745 96.4715 298.939 95.9226 299.378Z" fill="#1E1E1E"/>
<path d="M96.5091 315.934C94.4596 316.557 92.4467 317.29 90.4704 318.169C89.3725 318.682 86.6643 319.414 86.2983 320.769C85.5297 323.626 92.6297 322.491 93.6911 322.418C95.8138 322.271 97.9365 322.051 100.059 321.722C101.926 321.429 104.451 321.392 106.134 320.476C107.415 319.817 107.306 318.389 107.379 317.107C107.562 314.579 107.781 312.088 107.964 309.561C108.038 308.865 106.94 308.865 106.866 309.561C106.757 311.173 106.61 312.748 106.5 314.359C106.391 315.825 106.72 318.755 105.293 319.597C104.305 320.183 102.584 320.183 101.45 320.366C99.6566 320.66 97.8999 320.916 96.07 321.099C94.5694 321.246 93.0689 321.355 91.5684 321.392C90.7632 321.429 89.9581 321.502 89.1529 321.465C88.4576 321.429 87.2864 321.685 87.7622 320.696C87.9818 320.293 89.3725 319.817 89.8117 319.634C90.6534 319.231 91.5318 318.828 92.4101 318.462C93.8375 317.876 95.3014 317.4 96.7653 316.96C97.4973 316.777 97.2045 315.715 96.5091 315.934Z" fill="#1E1E1E"/>
<path d="M56.2868 308.426C56.543 314.543 51.5291 318.645 46.6249 321.282C44.5388 322.381 36.6702 324.872 39.4517 328.608C41.9038 331.905 47.9424 328.498 50.6141 327.07C55.2255 324.615 59.2513 321.282 63.277 317.949C63.826 317.509 63.0575 316.74 62.5085 317.18C59.0317 320.037 55.5548 322.931 51.6755 325.202C49.6992 326.374 47.6131 327.399 45.4172 328.132C44.1728 328.535 42.5259 329.194 41.2816 328.571C38.7197 327.326 40.8424 325.458 42.3063 324.652C48.894 321.172 57.7873 317.29 57.3848 308.389C57.3482 307.73 56.2502 307.73 56.2868 308.426Z" fill="#1E1E1E"/>
<path d="M34.9154 306.191C35.0984 304.946 35.7575 303.81 36.8924 303.224C37.5148 302.895 36.9656 301.942 36.3432 302.272C34.952 303.005 34.0733 304.396 33.8537 305.898C33.7438 306.594 34.8056 306.887 34.9154 306.191Z" fill="#1E1E1E"/>
<path d="M39.4896 316.667C38.904 317.766 37.8061 318.389 36.8545 319.158C35.8664 319.964 34.9148 320.843 33.9999 321.758C32.9019 322.894 30.4499 324.872 30.3401 326.593C30.0839 330.842 37.9891 327.179 39.4896 326.703C40.1484 326.483 39.8556 325.421 39.1968 325.641C37.5499 326.19 35.9396 326.776 34.2561 327.253C33.7803 327.436 33.2679 327.546 32.7921 327.582C31.8772 326.52 31.8406 325.604 32.6092 324.908C32.9751 324.286 33.6339 323.736 34.1097 323.224C35.2076 322.051 36.3788 320.953 37.6231 319.927C38.6478 319.084 39.7824 318.425 40.4046 317.216C40.7705 316.594 39.819 316.044 39.4896 316.667Z" fill="#1E1E1E"/>
<path d="M63.168 318.352C73.4521 318.389 83.5531 315.202 91.9341 309.231C92.5197 308.828 91.9707 307.876 91.3851 308.279C83.1506 314.14 73.3057 317.29 63.168 317.253C62.4726 317.216 62.4726 318.315 63.168 318.352Z" fill="#1E1E1E"/>
<path d="M86.2604 311.832C86.48 312.455 86.663 313.041 86.8825 313.663C87.2119 314.579 87.5047 314.872 86.5898 315.422C85.4552 316.118 84.1011 316.63 82.8933 317.216C81.649 317.802 80.4047 318.352 79.1969 319.011C78.6114 319.304 78.0624 319.634 77.8062 320.257C76.4887 323.773 85.1258 321.795 86.4068 321.392C87.0655 321.172 86.7727 320.11 86.114 320.33C85.1258 320.659 84.1011 320.916 83.0763 321.026C82.4176 321.099 80.5877 321.502 79.9289 321.136C78.1722 320.147 80.9903 319.341 81.5758 319.048C82.4908 318.608 83.4057 318.132 84.3573 317.693C85.382 317.18 87.8707 316.594 88.3465 315.458C88.7856 314.433 87.6145 312.455 87.2851 311.502C87.1021 310.88 86.0408 311.173 86.2604 311.832Z" fill="#1E1E1E"/>
<path d="M108.037 297.73C108.001 296.301 108.257 294.946 109.026 293.701C109.355 293.188 109.831 292.492 110.416 292.236C113.491 290.954 112.942 293.847 112.685 294.873C112.027 297.217 110.197 299.122 108.184 300.367C107.562 300.734 108.147 301.686 108.733 301.32C110.709 300.147 112.319 298.463 113.308 296.338C113.93 294.946 114.552 292.895 113.344 291.65C112.246 290.514 110.49 290.807 109.355 291.686C107.562 293.078 106.903 295.569 106.976 297.767C106.976 298.426 108.074 298.463 108.037 297.73Z" fill="#1E1E1E"/>
<path d="M40.8071 290.954C43.2226 289.342 47.0654 287.694 49.8835 289.159C50.5056 289.488 51.0546 288.536 50.4324 288.206C47.2118 286.522 43.0396 288.17 40.2582 290.001C39.6726 290.368 40.2216 291.32 40.8071 290.954Z" fill="#1E1E1E"/>
<path opacity="0.25" d="M112.43 291.796C112.356 292.748 112.137 294.177 111.514 295.752C110.416 298.572 108.768 300.074 109.025 300.331C109.244 300.55 110.855 299.561 111.88 298.133C112.722 296.924 112.942 295.752 112.979 295.386C113.235 293.664 112.686 292.309 112.43 291.796Z" fill="#64696C"/>
<path d="M341.566 273.124C349.838 280.889 358.072 288.691 366.343 296.456C356.681 316.126 352.802 326.528 354.705 327.701C357.047 329.166 368.393 316.236 388.778 288.837C374.724 278.581 360.671 268.325 346.617 258.033C344.933 263.087 343.25 268.106 341.566 273.124Z" fill="#1E1E1E"/>
<path d="M306.14 159.721C303.066 164.41 304.823 168.695 306.58 184.885C308.373 201.295 306.872 199.573 308.336 210.928C310.825 230.122 316.315 244.004 320.706 254.883C320.706 254.883 326.892 270.304 339.006 284.479C339.335 284.882 340.103 285.688 341.201 286.457C342.299 287.226 344.642 288.838 347.386 288.435C350.278 288.032 352.474 285.578 353.352 283.343C354.34 280.816 353.169 279.644 354.45 277.593C355.401 276.127 356.243 276.347 358.659 274.516C360.342 273.197 362.501 271.549 363.526 268.765C364.661 265.615 363.782 262.758 363.526 261.916C362.758 259.498 361.294 257.96 360.891 257.483C359.098 255.542 356.316 250.084 350.753 239.169C346.435 230.744 339.664 211.661 337.505 187.742C335.602 166.498 338.896 158.989 332.857 154.41C325.72 148.989 311.228 151.956 306.14 159.721Z" fill="white"/>
<path d="M335.895 167.486C335.565 180.233 337.139 192.943 339.884 205.397C342.556 217.485 345.996 229.682 350.754 241.11C353.169 246.971 356.17 252.575 360.086 257.557C360.525 258.106 361.294 257.337 360.855 256.787C353.535 247.557 349.729 236.165 346.289 225.067C342.556 213.089 339.591 200.855 338.054 188.365C337.212 181.442 336.846 174.446 337.029 167.486C337.029 166.754 335.931 166.754 335.895 167.486Z" fill="#1E1E1E"/>
<path d="M306.287 183.676C306.36 203.273 308.959 222.979 315.071 241.66C318.072 250.817 321.914 259.754 326.709 268.106C329.124 272.355 331.796 276.494 334.724 280.449C337.176 283.783 340.067 287.482 344.313 288.544C348.229 289.533 352.144 287.958 353.682 284.112C355.255 280.12 354.194 274.919 357.488 271.695C358 271.182 357.232 270.413 356.719 270.926C354.194 273.38 354.048 276.933 353.535 280.193C353.279 281.805 352.986 283.49 352.108 284.882C350.644 287.299 347.826 288.105 345.154 287.592C340.36 286.676 337.249 282.098 334.614 278.398C332.016 274.735 329.6 270.926 327.368 267.007C318.328 250.963 312.728 233.125 309.837 214.957C308.19 204.628 307.422 194.152 307.385 183.676C307.385 182.944 306.287 182.944 306.287 183.676Z" fill="#1E1E1E"/>
<path d="M359.208 256.531C362.172 260.047 364.478 264.626 362.904 269.278C362.099 271.732 360.269 272.648 358.256 273.93C356.499 275.065 355.035 276.567 353.828 278.289C353.425 278.875 354.377 279.424 354.779 278.838C355.804 277.446 356.975 276.127 358.402 275.138C359.317 274.516 360.342 274.04 361.257 273.38C362.977 272.135 363.929 270.194 364.295 268.142C365.1 263.454 362.904 259.242 359.976 255.725C359.537 255.212 358.769 256.018 359.208 256.531Z" fill="#1E1E1E"/>
<path d="M261.016 275.395C256.112 285.651 251.244 295.87 246.34 306.126C224.71 302.903 213.585 302.39 213.036 304.551C212.34 307.225 228.151 314.111 260.394 325.173C265.883 308.654 271.373 292.134 276.826 275.578C271.593 275.541 266.322 275.468 261.016 275.395Z" fill="#1E1E1E"/>
<path d="M304.531 156.351C300.761 159.575 299.663 163.018 296.626 170.051C291.941 180.856 286.634 191.405 281.877 202.211C272.398 223.748 269.324 228.51 262.15 245.433C258.015 255.176 258.051 255.872 255.819 259.938C253.513 264.113 251.134 267.63 249.487 273.637C248.499 277.226 248.28 279.9 249.231 282.611C249.597 283.673 250.732 287.006 253.696 288.142C255.599 288.874 257.539 288.435 259.735 287.885C261.528 287.446 262.956 286.823 263.944 286.31C264.602 287.153 265.774 288.398 267.64 289.204C271.117 290.779 274.447 289.717 276.058 289.204C277.009 288.911 280.559 287.665 283.158 284.186C284.951 281.805 285.463 279.424 285.793 278.142C287.11 272.684 289.819 267.666 291.575 262.318C292.527 259.388 294.357 254.919 306.58 237.045C319.756 217.778 320.415 218.913 326.856 208.328C333.846 196.826 337.762 190.526 339.482 180.929C340.873 173.164 342.922 161.773 336.115 155.033C328.393 147.194 312.766 149.246 304.531 156.351Z" fill="white"/>
<path d="M339.666 163.458C341.971 184.556 330.553 203.712 318.585 220.049C312.51 228.327 306.105 236.349 300.579 244.956C294.87 253.821 290.441 263.344 286.818 273.234C284.988 278.252 283.817 284.699 278.876 287.702C274.741 290.193 269.324 290.01 265.481 287.079C264.932 286.64 264.383 287.592 264.932 288.032C271.484 292.977 280.816 290.23 284.329 283.05C286.635 278.325 287.989 273.051 289.929 268.179C292.125 262.721 294.614 257.337 297.468 252.209C308.228 233.052 324.404 217.412 333.92 197.486C338.97 186.863 342.081 175.215 340.764 163.421C340.69 162.762 339.593 162.725 339.666 163.458Z" fill="#1E1E1E"/>
<path d="M303.944 153.055C293.917 174.996 283.889 196.973 273.824 218.913C268.774 230.012 263.687 241.074 258.636 252.172C256.257 257.41 253.768 262.611 251.463 267.886C249.633 272.025 247.876 276.677 248.572 281.255C249.157 284.955 251.463 288.874 255.525 289.167C258.453 289.387 261.417 287.995 264.126 287.116C267.31 286.09 270.53 285.028 273.714 284.003C274.373 283.783 274.08 282.721 273.422 282.94C270.896 283.746 268.408 284.552 265.882 285.395C263.247 286.237 260.612 287.299 257.904 287.885C252.597 288.984 249.669 284.442 249.486 279.68C249.303 274.406 251.939 269.315 254.061 264.663C256.403 259.571 258.709 254.48 261.051 249.352C270.384 228.95 279.716 208.547 289.012 188.145C294.283 176.607 299.553 165.069 304.823 153.568C305.189 152.945 304.237 152.396 303.944 153.055Z" fill="#1E1E1E"/>
<path d="M263.981 287.336C264.347 287.556 264.713 287.812 265.043 288.068C265.262 288.251 265.592 288.288 265.811 288.068C265.995 287.885 266.031 287.482 265.811 287.299C265.409 286.969 264.969 286.676 264.53 286.383C263.944 286.017 263.395 286.969 263.981 287.336Z" fill="#1E1E1E"/>
<path d="M235.287 47.0137C234.336 48.6254 234.153 50.1638 234.079 50.8598C233.713 53.8633 234.738 56.2076 235.177 57.1233C237.593 62.3612 243.119 64.156 244.107 64.449C244.766 66.9031 245.425 69.3573 246.157 71.848C247.804 77.672 249.524 83.3861 251.281 88.9536C253.623 88.624 255.965 88.2943 258.307 87.9647C257.649 84.8512 256.843 82.3605 256.258 80.7122C254.501 75.6574 252.854 73.13 251.427 67.6357C251.061 66.1706 250.805 64.9252 250.658 64.156C251.244 63.7531 252.049 63.0571 252.818 62.0682C255.855 58.1122 255.123 53.2773 254.977 52.2517C254.721 50.6766 254.318 47.8196 251.903 45.4021C248.828 42.2886 244.876 42.2154 244.29 42.2154C240.74 42.1055 237.081 43.9369 235.287 47.0137Z" fill="#F4BD42"/>
<path d="M237.411 49.9817C237.264 50.4213 236.862 51.9963 237.301 53.9376C237.96 56.7947 240.229 59.3953 243.266 60.2744C245.645 60.9704 249.268 60.8971 251.208 58.5162C252.562 56.8679 252.526 54.89 252.489 53.0585C252.452 51.0073 252.379 47.8573 249.891 45.8061C246.89 43.3153 242.9 44.5607 242.644 44.6339C240.046 45.4764 238.106 47.5642 237.411 49.9817Z" fill="white"/>
<path d="M244.034 73.0944C243.924 73.6438 243.777 74.4496 243.777 75.3654C243.777 75.8049 243.777 77.0137 244.217 78.8451C244.509 79.9806 244.692 80.2736 245.9 83.2039C247.218 86.3906 247.474 87.2697 248.462 87.6726C249.121 87.9656 249.816 87.8558 250.255 87.7459C249.194 86.061 249.267 85.072 249.523 84.4859C249.743 83.9365 250.109 83.8266 250.328 83.1307C250.402 82.8743 250.511 82.3981 250.109 80.7498C249.706 79.1381 249.523 79.1381 249.413 78.1858C249.267 77.0869 249.523 77.0503 249.377 76.0247C249.34 75.8415 249.194 74.8526 248.572 73.7171C247.986 72.6915 247.62 72.0322 246.888 71.8124C245.937 71.5926 244.875 72.142 244.034 73.0944Z" fill="white"/>
<path d="M253.146 72.6549C252.231 73.5706 250.95 75.2922 251.463 76.2079C251.902 76.9405 253.439 77.0137 254.208 77.0503C254.757 77.087 255.196 77.0503 255.525 77.0137C255.672 77.4166 255.818 77.7829 255.928 78.1858C256.952 81.1894 257.831 84.1563 258.563 87.0866C258.673 87.4895 258.782 87.8924 258.856 88.2587C258.526 88.7349 257.904 89.4675 256.916 90.0535C255.562 90.8227 254.281 90.9326 253.659 90.9326C254.354 92.6175 255.379 94.742 256.916 97.0496C257.355 97.7089 258.636 99.6503 260.759 101.958C262.772 104.156 264.784 106.353 268.005 108.258C272.36 110.859 276.459 111.445 278.728 111.738C282.132 112.177 284.804 111.994 286.158 111.848C287.329 111.738 291.977 111.152 297.357 108.405C302.371 105.841 305.408 102.764 307.714 100.383C309.507 98.5514 312.582 95.2914 315.253 90.1268C317.083 86.5372 317.778 83.8633 319.096 78.6254C320.963 71.2264 321.878 67.5269 320.048 65.8419C318.51 64.45 315.802 65.0361 313.606 65.5489C309.983 66.3547 307.531 68.2961 304.567 70.7136C303.066 71.9589 301.749 73.2409 299.223 75.7317C293.88 81.0062 293.551 81.8487 290.623 84.2662C288.866 85.7313 287.439 86.6837 284.584 88.5518C278.875 92.3611 277.264 92.6908 276.02 92.7641C273.751 92.8739 272.031 92.1047 270.457 91.4088C265.773 89.2843 263.54 85.5482 262.845 84.3761C261.93 82.801 261.234 81.5923 261.198 79.9074C261.161 77.9661 262.003 77.3434 262.04 74.9625C262.076 73.5706 262.113 71.6293 260.942 70.6403C259.112 69.0286 255.232 70.6037 253.146 72.6549Z" fill="white"/>
<path d="M260.577 81.922C264.017 87.8558 269.324 94.0827 276.936 93.167C277.631 93.0937 277.631 91.9949 276.936 92.0681C269.69 92.9472 264.785 86.9767 261.492 81.3725C261.162 80.7499 260.211 81.2993 260.577 81.922Z" fill="#1E1E1E"/>
<path d="M268.922 94.4855C273.753 94.9251 278.218 92.8372 282.28 90.493C286.489 88.0755 290.368 85.1452 293.882 81.7753C300.909 74.999 308.228 64.0837 319.464 66.0982C320.159 66.2081 320.452 65.1459 319.757 65.036C309.765 63.2412 302.373 71.2629 296.187 77.8194C292.564 81.6655 288.648 85.1818 284.183 88.0389C279.645 90.9692 274.485 93.8628 268.922 93.3867C268.227 93.3134 268.227 94.4123 268.922 94.4855Z" fill="#1E1E1E"/>
<path d="M251.793 89.0278C257.173 99.2472 263.797 109.32 275.838 111.884C286.927 114.265 298.199 110.236 306.324 102.617C311.082 98.1484 314.742 92.654 317.377 86.7202C317.669 86.0975 316.718 85.5114 316.425 86.1708C311.997 96.0605 304.494 105.071 294.247 109.174C283.926 113.276 271.666 111.957 263.468 104.155C258.856 99.76 255.709 94.0826 252.744 88.4784C252.415 87.8191 251.464 88.4051 251.793 89.0278Z" fill="#1E1E1E"/>
<path d="M254.757 71.1164C252.89 71.9222 250.255 74.3763 251.28 76.6839C252.415 79.1747 256.44 77.0136 257.868 75.9513C258.417 75.5484 257.868 74.5961 257.319 74.999C256.477 75.6217 252.561 77.9659 252.195 75.8048C251.902 74.1932 254.098 72.6181 255.342 72.0687C255.965 71.7757 255.379 70.8233 254.757 71.1164Z" fill="#1E1E1E"/>
<path d="M254.978 72.142C256.368 71.0797 258.564 69.3948 260.321 70.9332C261.748 72.2152 261.455 74.4496 261.199 76.0979C260.87 78.2223 260.028 81.1893 261.382 83.0939C261.785 83.68 262.736 83.1306 262.334 82.5445C261.016 80.6765 262.224 77.3066 262.444 75.2554C262.627 73.717 262.553 72.142 261.675 70.86C259.772 68.0762 256.551 69.5779 254.429 71.1896C253.88 71.6292 254.429 72.5815 254.978 72.142Z" fill="#1E1E1E"/>
<path d="M254.354 77.0137C255.598 80.7132 256.732 84.4494 257.83 88.2221C257.94 88.0024 258.087 87.7826 258.196 87.5628C255.708 88.1489 253.146 87.5262 250.804 88.7349C251.06 88.8448 251.353 88.9547 251.609 89.0646C251.17 87.4896 250.621 85.9145 250.072 84.3761C249.815 83.7168 248.754 84.0098 249.01 84.6692C249.596 86.2076 250.108 87.7826 250.547 89.3576C250.657 89.7239 251.023 89.8338 251.353 89.6873C253.548 88.5518 256.147 89.1745 258.489 88.6251C258.782 88.5518 258.965 88.2221 258.855 87.9657C257.757 84.193 256.623 80.4935 255.378 76.7574C255.195 76.0248 254.134 76.3178 254.354 77.0137Z" fill="#1E1E1E"/>
<path d="M250.952 89.4308C252.562 92.068 257.576 91.0791 258.71 88.4418C259.003 87.7825 258.052 87.233 257.759 87.8924C256.99 89.7238 253.074 90.8227 251.867 88.8813C251.537 88.2586 250.586 88.8081 250.952 89.4308Z" fill="#1E1E1E"/>
<path d="M251.939 89.7604C253.805 90.1633 255.635 90.0534 257.428 89.3941C258.087 89.1377 257.794 88.0755 257.136 88.3319C255.525 88.9179 253.878 89.0278 252.231 88.6981C251.536 88.5516 251.243 89.6139 251.939 89.7604Z" fill="#1E1E1E"/>
<path d="M251.611 89.5773C252.929 87.5628 255.418 87.0133 257.467 88.2221C258.089 88.5884 258.638 87.636 258.016 87.2697C255.381 85.768 252.307 86.5005 250.623 89.0279C250.257 89.614 251.209 90.2 251.611 89.5773Z" fill="#1E1E1E"/>
<path d="M253.623 88.9181C254.063 87.5262 255.929 88.2954 256.808 88.6983C257.43 88.9913 258.015 88.039 257.356 87.746C255.783 87.0134 253.257 86.3907 252.562 88.625C252.379 89.321 253.44 89.614 253.623 88.9181Z" fill="#1E1E1E"/>
<path d="M249.049 87.1965C248.097 86.5738 247.475 85.5116 247.512 84.3395C247.548 83.8267 247.695 83.3505 247.914 82.911C248.024 82.7278 249.049 81.4092 249.306 81.5923C249.855 82.0319 250.624 81.2627 250.074 80.8231C248.683 79.7243 246.999 81.9586 246.633 83.1674C246.011 85.1087 246.853 87.05 248.5 88.1489C249.086 88.5152 249.635 87.5628 249.049 87.1965Z" fill="#1E1E1E"/>
<path d="M249.378 85.0721C250.989 84.1564 251.245 81.9953 249.817 80.7865C249.268 80.347 248.499 81.1162 249.048 81.5557C249.927 82.2883 249.854 83.5337 248.828 84.1197C248.206 84.486 248.755 85.4384 249.378 85.0721Z" fill="#1E1E1E"/>
<path d="M247.804 87.5262C248.61 88.332 249.891 88.5152 250.843 87.8925C251.429 87.5262 250.879 86.5739 250.294 86.9401C249.744 87.3064 249.049 87.2332 248.573 86.757C248.097 86.2442 247.328 87.0134 247.804 87.5262Z" fill="#1E1E1E"/>
<path d="M246.926 83.8632C246.267 82.8742 246.047 81.7387 246.304 80.5666C246.596 79.1747 247.841 77.4898 249.305 78.9183C249.817 79.4311 250.586 78.6253 250.073 78.1491C248.646 76.7206 246.889 77.1235 245.864 78.8084C244.803 80.53 244.913 82.7643 246.011 84.4126C246.377 84.9987 247.328 84.4493 246.926 83.8632Z" fill="#1E1E1E"/>
<path d="M245.645 81.3359C245.572 80.8231 245.389 80.4202 245.133 79.944C244.657 79.065 244.547 78.4056 244.803 77.4167C245.243 75.7317 246.67 74.4864 248.39 75.512C249.012 75.8783 249.561 74.9259 248.939 74.5596C247.365 73.6439 245.352 74.0102 244.364 75.5852C243.852 76.3911 243.523 77.4533 243.523 78.4056C243.486 79.6144 244.401 80.4568 244.584 81.629C244.694 82.3249 245.755 82.0319 245.645 81.3359Z" fill="#1E1E1E"/>
<path d="M244.584 75.9881C243.998 75.1456 243.962 73.9735 244.694 73.2043C245.426 72.4351 246.597 72.3984 247.475 72.9479C248.061 73.3142 248.61 72.3618 248.024 71.9955C246.743 71.1897 244.987 71.3362 243.925 72.4351C242.864 73.5339 242.791 75.3287 243.632 76.5741C244.035 77.1235 244.987 76.5741 244.584 75.9881Z" fill="#1E1E1E"/>
<path d="M247.987 75.3653C248.793 75.7682 249.086 76.9037 248.463 77.5997C247.987 78.1125 248.756 78.9183 249.232 78.3689C250.294 77.1967 250.001 75.1455 248.536 74.413C247.914 74.1199 247.328 75.0356 247.987 75.3653Z" fill="#1E1E1E"/>
<path d="M247.036 72.9846C247.731 73.3142 248.134 74.0468 247.987 74.8526C247.841 75.5486 248.903 75.8416 249.049 75.1457C249.305 73.9003 248.72 72.6183 247.585 72.0689C246.962 71.7026 246.413 72.6549 247.036 72.9846Z" fill="#1E1E1E"/>
<path d="M249.231 79.3946C249.487 79.7976 249.56 80.3104 249.341 80.7865C249.231 81.0429 249.267 81.3726 249.524 81.5557C249.743 81.7023 250.146 81.629 250.293 81.3726C250.659 80.5668 250.622 79.651 250.183 78.8818C249.817 78.2225 248.865 78.7719 249.231 79.3946Z" fill="#1E1E1E"/>
<path d="M243.815 64.8897C244.254 67.3805 244.803 69.8346 245.499 72.2887C245.682 72.9846 246.744 72.6916 246.56 71.9957C245.865 69.5782 245.316 67.0874 244.876 64.5967C244.767 63.9007 243.705 64.1938 243.815 64.8897Z" fill="#1E1E1E"/>
<path d="M249.963 64.3035C250.842 67.2338 251.721 70.1275 252.563 73.0578C252.782 73.7171 253.808 73.4607 253.624 72.7648C252.746 69.8345 251.867 66.9408 251.025 64.0105C250.805 63.3145 249.744 63.6076 249.963 64.3035Z" fill="#1E1E1E"/>
<path d="M243.924 63.8273C239.276 63.3878 235.031 57.4539 234.372 53.1317C233.567 47.8938 238.435 43.5716 243.265 42.6559C253.623 40.7512 259.112 58.9191 250.256 63.6808C249.634 64.0105 250.183 64.9628 250.805 64.6331C258.49 60.4941 256.404 47.381 249.963 43.0955C242.204 37.9308 230.566 46.2455 233.787 55.2562C235.287 59.4319 239.203 64.45 243.924 64.8896C244.62 64.9994 244.62 63.9006 243.924 63.8273Z" fill="#1E1E1E"/>
<path d="M243.89 59.9814C240.34 59.1756 237.558 56.0622 237.595 52.326C237.632 48.3701 240.889 44.8538 244.878 44.7073C249.672 44.5608 252.015 49.2126 251.941 53.4615C251.905 55.9157 251.539 58.2599 249.014 59.2489C247.074 59.9814 244.951 60.6408 242.902 59.8349C242.243 59.5785 241.95 60.6408 242.609 60.8972C244.951 61.8129 247.659 61.0437 249.892 60.0547C252.015 59.1024 252.637 57.4174 252.93 55.1831C253.515 50.3115 251.612 44.341 246.013 43.6817C241.401 43.1322 237.302 46.7218 236.643 51.2272C235.985 55.8058 239.242 60.0181 243.67 61.0437C244.292 61.1902 244.585 60.128 243.89 59.9814Z" fill="#1E1E1E"/>
<path d="M245.059 44.3043C243.559 49.0294 242.058 53.7911 240.594 58.5162C240.375 59.1755 241.436 59.4686 241.656 58.8092C243.156 54.0841 244.657 49.3224 246.12 44.5973C246.34 43.938 245.279 43.6449 245.059 44.3043Z" fill="#1E1E1E"/>
<path d="M247.219 49.5788C246.084 52.9853 244.84 56.3552 243.559 59.6884C243.303 60.3477 244.364 60.6407 244.62 59.9814C245.901 56.6482 247.146 53.2417 248.28 49.8719C248.5 49.1759 247.439 48.8829 247.219 49.5788Z" fill="#1E1E1E"/>
<path d="M313.204 62.3989C307.129 66.9042 304.896 72.9113 302.371 79.5777C297.687 91.9582 298.455 101.811 298.967 117.415C299.297 127.342 299.59 141.737 299.297 159.685C305.592 161.26 313.497 162.615 322.646 162.945C329.746 163.165 336.078 162.725 341.421 161.992C344.422 148.183 347.57 137.048 349.912 129.32C357.744 103.46 365.686 84.5226 358.439 69.3583C358.073 68.6257 357.707 68.0031 357.305 67.4536C348.96 55.6592 325.574 53.205 313.204 62.3989Z" fill="#F4BD42"/>
<path d="M352.253 65.8044C351.046 66.244 349.325 66.9766 347.349 68.112C340.396 72.1046 336.699 77.5989 334.43 80.8955C334.43 80.8955 326.781 92.0306 314.996 106.975C311.337 111.627 307.677 115.949 303.175 120.638C293.843 130.381 289.707 132.395 287.914 133.165C283.449 135.143 279.533 136.864 274.373 136.461C270.969 136.205 268.846 135.143 266.504 136.571C264.015 138.073 262.368 141.663 262.698 143.64C262.734 143.86 262.881 144.556 262.954 145.545C262.991 145.802 263.027 146.681 262.954 147.963C262.844 149.941 262.625 149.757 262.698 150.49C262.917 152.065 264.015 152.871 263.686 153.384C263.466 153.75 262.881 153.42 262.442 153.897C261.929 154.409 262.149 155.398 262.185 155.545C262.442 156.68 263.393 157.34 263.796 157.559C265.369 158.585 266.431 158.036 270.42 158.182C273.238 158.292 274.08 158.622 275.471 157.926C275.837 157.743 276.459 157.413 277.557 156.168C280.704 152.651 280.338 150.307 283.083 148.073C284.071 147.267 285.059 146.827 285.681 146.571C287.694 145.692 289.012 145.728 290.952 145.289C292.269 145.032 293.587 144.483 296.222 143.384C300.504 141.626 303.797 139.904 305.078 139.208C312.801 135.033 319.791 129.758 321.291 128.586C329.306 122.469 334.43 117.304 341.091 110.601C345.885 105.803 350.936 100.382 355.84 93.0196C357.34 90.7486 360.012 86.5363 360.89 80.6024C361.293 77.9286 361.696 74.925 360.159 71.8848C358.036 67.4527 353.388 66.0975 352.253 65.8044Z" fill="white"/>
<path d="M351.158 65.4753C344.241 67.6364 338.97 73.8999 334.652 79.3942C329.748 85.6577 325.319 92.2509 320.562 98.5877C315.474 105.364 310.204 111.994 304.458 118.221C299.005 124.081 293.04 129.869 285.684 133.238C281.402 135.18 276.68 136.279 271.996 135.876C269.324 135.656 265.921 134.997 264.274 137.707C263.908 138.293 264.859 138.879 265.225 138.257C266.213 136.608 268.263 136.645 269.946 136.791C271.703 136.901 273.423 137.121 275.18 137.048C278.657 136.865 282.097 135.986 285.318 134.63C292.161 131.737 297.871 126.755 302.994 121.444C314.047 110.016 323.123 96.976 332.493 84.1926C335.128 80.603 337.836 77.0866 340.947 73.8999C343.948 70.8231 347.351 67.8562 351.56 66.5376C352.109 66.3178 351.816 65.2555 351.158 65.4753Z" fill="#1E1E1E"/>
<path d="M351.046 66.1717C357.158 65.3292 360.562 71.8125 360.525 77.0504C360.488 82.2517 358.293 87.3797 355.731 91.8118C350.973 100.127 344.056 107.232 337.358 114.009C324.11 127.305 308.666 139.356 290.403 144.74C288.171 145.4 285.462 145.619 283.486 146.938C281.62 148.183 280.668 150.601 279.387 152.396C278.436 153.714 277.411 154.996 276.313 156.205C274.885 157.743 273.568 157.89 271.628 157.744C270.164 157.634 268.7 157.524 267.2 157.414C265.699 157.304 263.577 157.414 262.845 155.802C262.552 155.143 261.6 155.729 261.893 156.352C262.662 158.073 264.492 158.293 266.175 158.439C267.529 158.549 268.883 158.659 270.238 158.732C271.555 158.842 273.056 159.135 274.373 158.879C276.569 158.439 278.216 155.692 279.497 154.081C281.034 152.103 282.315 148.843 284.547 147.597C285.792 146.901 287.365 146.718 288.72 146.352C290.074 145.986 291.391 145.619 292.709 145.18C295.088 144.411 297.467 143.495 299.772 142.506C304.603 140.418 309.214 137.927 313.643 135.07C322.5 129.356 330.551 122.433 337.981 114.998C345.52 107.452 353.462 99.3573 358.219 89.6507C360.708 84.5593 362.757 78.4057 361.147 72.7649C359.866 68.2229 355.731 64.4868 350.827 65.1461C350.058 65.2193 350.351 66.2816 351.046 66.1717Z" fill="#1E1E1E"/>
<path d="M263.064 143.385C263.393 141.151 269.066 141.37 270.567 141.224C272.616 141.041 274.446 140.601 276.056 139.246C276.605 138.77 275.8 138.001 275.288 138.477C272.945 140.455 269.725 140.052 266.87 140.418C265.37 140.638 262.295 141.187 262.039 143.055C261.893 143.788 262.954 144.081 263.064 143.385Z" fill="#1E1E1E"/>
<path d="M261.967 143.532C263.76 147.085 267.64 149.026 271.519 148.183C272.214 148.037 271.922 146.975 271.226 147.121C267.786 147.89 264.456 146.096 262.882 142.982C262.589 142.359 261.637 142.909 261.967 143.532Z" fill="#1E1E1E"/>
<path d="M262.479 144.557C261.747 146.462 262.589 148.586 264.199 149.758C266.029 151.114 268.408 150.967 270.531 150.601C271.226 150.491 270.934 149.429 270.238 149.539C268.591 149.832 266.725 149.978 265.188 149.099C263.687 148.257 262.919 146.462 263.504 144.85C263.797 144.191 262.736 143.898 262.479 144.557Z" fill="#1E1E1E"/>
<path d="M262.553 147.597C261.528 149.282 261.967 151.517 263.394 152.872C265.078 154.484 267.64 154.3 269.579 153.348C270.202 153.055 269.653 152.103 269.03 152.396C267.53 153.092 265.59 153.311 264.236 152.139C263.102 151.15 262.736 149.465 263.504 148.147C263.87 147.524 262.919 146.975 262.553 147.597Z" fill="#1E1E1E"/>
<path d="M263.028 155.949C262.296 154.777 263.285 153.312 264.676 153.824C265.335 154.081 265.628 153.019 264.969 152.762C262.699 151.92 260.905 154.557 262.113 156.498C262.443 157.084 263.394 156.535 263.028 155.949Z" fill="#1E1E1E"/>
<path d="M264.236 138.44C266.286 137.708 268.445 138.697 269.324 140.675C269.616 141.334 270.568 140.748 270.275 140.125C269.214 137.744 266.432 136.499 263.944 137.415C263.285 137.634 263.578 138.697 264.236 138.44Z" fill="#1E1E1E"/>
<path d="M263.833 137.781C262.368 138.843 262.405 141.371 264.052 142.25C264.675 142.579 265.224 141.627 264.601 141.297C263.723 140.821 263.503 139.319 264.382 138.733C264.968 138.294 264.418 137.341 263.833 137.781Z" fill="#1E1E1E"/>
<path d="M264.163 140.821C264.236 140.015 264.492 139.356 264.968 138.697C264.639 138.697 264.346 138.697 264.016 138.697C264.382 139.319 264.382 139.905 264.016 140.491C264.346 140.528 264.675 140.565 265.005 140.638C264.931 140.418 264.895 138.733 265.334 139.026C265.663 139.246 264.931 140.382 264.785 140.638C265.114 140.638 265.407 140.638 265.737 140.638C265.59 140.382 265.48 140.125 265.48 139.832C265.627 139.026 265.846 138.953 266.102 139.649C266.285 139.796 266.468 139.905 266.615 140.052C266.505 139.649 266.615 139.429 266.944 139.503C267.274 139.356 267.347 139.466 267.164 139.796C267.42 139.869 267.676 139.942 267.932 139.979C268.042 140.089 268.115 140.198 268.225 140.308C268.115 141.004 269.177 141.297 269.287 140.601C269.433 139.686 268.591 138.44 267.64 139.283C266.834 140.015 267.64 141.371 268.664 140.821C269.653 140.272 269.25 138.77 268.225 138.514C267.054 138.257 266.468 139.649 266.981 140.528C267.127 140.785 267.493 140.858 267.749 140.711C268.664 140.162 268.591 138.623 267.566 138.221C266.249 137.671 265.407 139.246 265.59 140.345C265.627 140.601 265.883 140.748 266.102 140.748C267.64 140.821 268.006 138.55 266.578 138.074C264.602 137.415 264.053 139.905 264.785 141.224C265.005 141.627 265.517 141.554 265.737 141.224C266.249 140.491 267.31 137.854 265.627 137.708C264.053 137.598 263.614 139.869 263.943 140.968C264.09 141.407 264.712 141.517 264.931 141.114C265.48 140.198 265.48 139.136 264.931 138.184C264.712 137.818 264.199 137.854 263.98 138.184C263.394 138.99 263.138 139.869 263.028 140.858C262.992 141.554 264.09 141.517 264.163 140.821Z" fill="#1E1E1E"/>
<path d="M263.247 142.03C265.114 142.359 269.652 142.726 270.128 140.015C270.237 139.319 269.176 139.026 269.066 139.722C268.737 141.59 264.821 141.187 263.54 140.968C262.845 140.858 262.552 141.92 263.247 142.03Z" fill="#1E1E1E"/>
<path d="M267.676 141.481C269.067 147.085 268.92 152.835 267.2 158.33C266.98 158.989 268.042 159.282 268.261 158.623C270.019 152.945 270.202 146.975 268.737 141.187C268.554 140.492 267.493 140.785 267.676 141.481Z" fill="#1E1E1E"/>
<path d="M267.455 141.554C267.712 144.337 267.858 147.085 267.931 149.868C268.005 152.542 268.188 155.289 267.309 157.853C267.089 158.513 268.151 158.806 268.371 158.147C269.213 155.692 269.103 153.128 269.066 150.564C268.993 147.561 268.847 144.557 268.59 141.554C268.481 140.858 267.382 140.858 267.455 141.554Z" fill="#1E1E1E"/>
<path d="M268.883 141.517C269.688 142.103 269.542 144.997 269.578 145.912C269.615 147.158 269.615 148.367 269.542 149.612C269.395 152.249 268.993 154.886 268.334 157.45C268.151 158.146 269.212 158.439 269.395 157.744C270.201 154.52 270.64 151.26 270.677 147.927C270.677 146.242 270.604 144.557 270.42 142.872C270.311 141.883 270.237 141.151 269.432 140.565C268.846 140.162 268.297 141.114 268.883 141.517Z" fill="#1E1E1E"/>
<path d="M268.627 141.224C269.103 144.191 269.25 147.158 269.03 150.125C268.993 150.821 270.092 150.821 270.128 150.125C270.348 147.048 270.201 143.971 269.689 140.931C269.579 140.235 268.517 140.528 268.627 141.224Z" fill="#1E1E1E"/>
<path d="M265.955 141.444C267.162 145.51 267.638 149.722 267.309 153.971C267.236 155.07 266.101 160.234 269.066 158.842C270.163 158.33 270.273 157.048 270.383 156.022C270.603 153.934 270.639 151.846 270.639 149.759C270.639 146.462 271.078 142.469 269.175 139.612C268.773 139.026 267.821 139.576 268.224 140.162C269.797 142.543 269.505 145.619 269.541 148.367C269.541 149.868 269.541 151.37 269.505 152.872C269.468 153.568 269.432 154.264 269.395 154.96C269.358 155.326 269.139 158.33 268.077 157.084C268.077 157.084 268.297 155.473 268.334 155.289C268.407 154.63 268.48 153.934 268.517 153.275C268.59 151.92 268.59 150.564 268.517 149.246C268.37 146.499 267.858 143.788 267.089 141.151C266.833 140.455 265.772 140.748 265.955 141.444Z" fill="#1E1E1E"/>
<path d="M267.31 141.297C267.53 143.056 267.713 144.814 267.933 146.535C268.006 147.231 269.104 147.231 269.031 146.535C268.812 144.777 268.628 143.019 268.409 141.297C268.299 140.601 267.201 140.601 267.31 141.297Z" fill="#1E1E1E"/>
<path d="M266.211 140.235C266.98 142.213 267.603 144.264 268.005 146.352C268.152 147.048 269.214 146.755 269.067 146.059C268.664 143.971 268.079 141.92 267.273 139.942C267.017 139.283 265.955 139.576 266.211 140.235Z" fill="#1E1E1E"/>
<path d="M343.433 32.7664C343.726 41.6305 343.397 46.6487 344.897 55.1099C345.593 59.0658 346.435 62.2525 347.057 64.377C343.287 65.5857 336.956 67.0509 329.197 66.2084C324.11 65.659 319.974 64.3037 317.01 63.0584C318.364 60.4943 320.011 56.7216 320.926 51.9598C321.731 47.8208 321.731 44.2312 321.548 41.5207C317.742 39.9823 313.935 38.4072 310.129 36.8688C309.8 34.9275 309.507 32.9862 309.178 31.0815C308.116 30.7518 307.018 30.4222 305.957 30.0925C307.384 27.9314 309.617 24.5249 312.252 20.276C317.193 12.2543 317.485 11.0089 319.462 9.43389C324.805 5.1117 334.613 4.01284 339.7 8.44492C342.702 11.0822 342.994 18.3347 343.433 32.7664Z" fill="white" stroke="#1E1E1E" stroke-width="2" stroke-miterlimit="10"/>
<path d="M305.884 30.7152C307.897 31.3013 309.946 31.6676 312.032 31.8873C312.728 31.9606 312.728 30.8617 312.032 30.7885C310.056 30.5687 308.08 30.2024 306.177 29.653C305.481 29.4698 305.189 30.5321 305.884 30.7152Z" fill="#1E1E1E"/>
<path d="M309.179 14.8547C310.533 14.525 311.997 15.2576 312.509 16.5763C312.765 17.2356 313.827 16.9425 313.57 16.2832C312.839 14.3785 310.899 13.3163 308.923 13.7925C308.191 13.9756 308.483 15.0378 309.179 14.8547Z" fill="#1E1E1E"/>
<path d="M317.414 18.3346C319.06 18.2613 320.561 19.2137 321.11 20.7521C321.33 21.4114 322.391 21.1184 322.171 20.459C321.476 18.4445 319.573 17.0892 317.45 17.1991C316.718 17.2724 316.718 18.3712 317.414 18.3346Z" fill="#1E1E1E"/>
<path d="M317.779 22.9864C317.523 22.4369 317.633 21.9608 317.706 21.3747C317.816 21.2282 317.816 21.1549 317.706 21.2282C317.596 21.2648 317.596 21.3381 317.706 21.448C317.742 21.7044 317.816 21.9608 317.852 22.2172C317.852 22.4003 317.779 22.7666 317.816 22.9131C317.889 22.9864 317.962 23.0596 318.035 23.1329C318.035 23.023 318.072 22.9131 318.072 22.8032C318.145 22.2538 318.218 21.7044 318.292 21.1183C318.365 20.5689 317.486 20.3857 317.267 20.8253C317.083 21.1916 317.01 21.5212 317.01 21.9241C317.047 22.6201 318.145 22.6201 318.109 21.9241C318.109 21.7044 318.109 21.5945 318.218 21.3747C317.889 21.2648 317.523 21.1916 317.193 21.0817C317.12 21.741 316.937 22.4369 316.937 23.0962C316.937 23.5724 317.193 23.9753 317.669 24.0486C318.877 24.2317 318.987 22.6933 318.914 21.8509C318.804 21.0817 318.218 19.4334 317.157 20.3125C316.241 21.045 316.461 22.6201 316.864 23.5358C317.12 24.1585 318.072 23.609 317.779 22.9864Z" fill="#1E1E1E"/>
<path d="M317.412 11.2285C318.144 9.50694 319.608 6.79642 322.353 4.26903C323.304 3.38994 325.354 1.52188 328.099 0.60616C333.296 -1.11539 340.066 0.899193 344.092 5.77081C348.045 10.5326 348.813 17.4188 346.142 23.316C336.59 19.2868 327.001 15.2577 317.412 11.2285Z" fill="#F4BD42"/>
<path d="M301.127 6.79628C315.949 12.7668 330.771 18.7006 345.557 24.6711C347.533 25.4769 348.375 22.2902 346.435 21.4844C331.613 15.5139 316.791 9.58006 302.005 3.60958C300.066 2.84037 299.187 6.02708 301.127 6.79628Z" fill="#1E1E1E"/>
<path d="M336.334 20.3124C333.37 20.6054 331.32 22.0339 328.905 23.7555C323.818 27.4184 324.513 29.4329 321.036 31.6307C315.51 35.147 311.85 31.2644 306.836 34.7807C302.554 37.7843 301.639 43.0588 301.456 44.3042C301.273 45.4763 300.651 50.2747 303.616 54.4504C306.177 58.0766 310.459 59.8714 310.899 59.322C311.045 59.1388 310.825 58.4795 308.813 56.2085C309.398 56.9045 310.35 57.8202 311.74 58.4429C313.351 59.1755 314.998 59.322 315.071 59.0656C315.144 58.8824 314.229 58.6627 313.717 57.747C313.424 57.1975 313.387 56.6481 313.387 56.2085C314.485 57.4173 315.986 58.626 317.706 58.5894C322.427 58.4063 325.757 48.9194 326.855 45.7694C330.405 35.5866 328.905 29.1033 333.516 26.3928C333.919 26.173 335.749 25.0741 337.286 25.8067C339.262 26.7224 339.958 30.2754 338.75 32.2167C337.688 33.865 335.529 33.8284 335.566 34.1947C335.639 34.6709 339.299 34.9273 342.776 33.3888C344.056 32.8394 345.081 32.3632 345.886 31.2644C347.241 29.3231 346.948 26.5759 346.143 24.8177C344.386 21.045 339.555 19.9827 336.334 20.3124Z" fill="#1E1E1E" stroke="#1E1E1E" stroke-width="2" stroke-miterlimit="10"/>
<path d="M334.139 0.276367C337.908 2.1078 340.068 6.0637 339.555 9.94635C338.933 14.5616 334.834 16.7227 334.431 16.9424C338.53 18.5907 342.629 20.2024 346.728 21.8507C347.058 20.8983 347.424 19.5797 347.607 17.9314C348.119 12.7301 345.996 8.84749 345.521 8.07829C344.789 6.83291 342.19 2.62061 337.067 0.935685C335.932 0.496141 334.907 0.349625 334.139 0.276367Z" fill="#F4BD42"/>
</svg>
