<svg width="39" height="32" viewBox="0 0 39 32" fill="none" xmlns="http://www.w3.org/2000/svg">
<path d="M26.2365 22.6655L19.5099 15.9979L12.7832 22.6655" stroke="#BBC0C4" stroke-width="1.6" stroke-linecap="round" stroke-linejoin="round"/>
<path d="M19.5078 15.9979V31" stroke="#BBC0C4" stroke-width="1.6" stroke-linecap="round" stroke-linejoin="round"/>
<path d="M33.6164 26.6494C35.2566 25.7631 36.5523 24.3605 37.299 22.6632C38.0458 20.9659 38.201 19.0704 37.7402 17.2759C37.2794 15.4815 36.2289 13.8902 34.7543 12.7532C33.2798 11.6163 31.4653 10.9985 29.5972 10.9973H27.4783C26.9693 9.04573 26.0206 7.23397 24.7035 5.6982C23.3864 4.16242 21.7352 2.94258 19.874 2.1304C18.0129 1.31822 15.9901 0.934827 13.958 1.00904C11.9258 1.08326 9.93703 1.61315 8.14119 2.55889C6.34536 3.50463 4.78919 4.8416 3.58968 6.46928C2.39017 8.09697 1.57853 9.97302 1.21578 11.9564C0.853024 13.9397 0.948603 15.9788 1.49532 17.9203C2.04205 19.8618 3.02569 21.6551 4.37229 23.1656" stroke="#BBC0C4" stroke-width="1.6" stroke-linecap="round" stroke-linejoin="round"/>
<path d="M26.2365 22.6655L19.5099 15.9979L12.7832 22.6655" stroke="#BBC0C4" stroke-width="1.6" stroke-linecap="round" stroke-linejoin="round"/>
</svg>
