<svg width="22" height="22" viewBox="0 0 22 22" fill="none" xmlns="http://www.w3.org/2000/svg">
<circle cx="11" cy="11" r="11" fill="white"/>
<path d="M19.4617 11.3655C19.4617 10.6556 19.4041 10.1376 19.2794 9.60034H11.1729V12.8046H15.9312C15.8353 13.6009 15.3173 14.8001 14.166 15.6059L14.1499 15.7131L16.713 17.6988L16.8906 17.7165C18.5215 16.2103 19.4617 13.9942 19.4617 11.3655Z" fill="#4285F4"/>
<path d="M11.1722 19.8071C13.5035 19.8071 15.4605 19.0395 16.89 17.7157L14.1654 15.605C13.4363 16.1135 12.4578 16.4684 11.1722 16.4684C8.88899 16.4684 6.9511 14.9623 6.26029 12.8805L6.15904 12.8891L3.49384 14.9517L3.45898 15.0486C4.87882 17.8691 7.79527 19.8071 11.1722 19.8071Z" fill="#34A853"/>
<path d="M6.26036 12.881C6.07808 12.3438 5.9726 11.7681 5.9726 11.1733C5.9726 10.5785 6.07808 10.0029 6.25077 9.46567L6.24594 9.35125L3.54734 7.25549L3.45905 7.29749C2.87387 8.46792 2.53809 9.78227 2.53809 11.1733C2.53809 12.5644 2.87387 13.8787 3.45905 15.0491L6.26036 12.881Z" fill="#FBBC05"/>
<path d="M11.1722 5.87712C12.7935 5.87712 13.8872 6.57745 14.5108 7.16269L16.9476 4.78347C15.451 3.39241 13.5035 2.53857 11.1722 2.53857C7.79528 2.53857 4.87882 4.47646 3.45898 7.29695L6.25071 9.46513C6.9511 7.38333 8.88899 5.87712 11.1722 5.87712Z" fill="#EB4335"/>
</svg>
