<svg width="34" height="34" viewBox="0 0 34 34" fill="none" xmlns="http://www.w3.org/2000/svg">
<path fill-rule="evenodd" clip-rule="evenodd" d="M17 34C26.3888 34 34 26.3888 34 17C34 7.61116 26.3888 0 17 0C7.61116 0 0 7.61116 0 17C0 26.3888 7.61116 34 17 34Z" fill="url(#paint0_linear)"/>
<path fill-rule="evenodd" clip-rule="evenodd" d="M13.3529 8H20.6156C23.5672 8 25.9685 10.4013 25.9685 13.3529V20.6156C25.9685 23.5672 23.5672 25.9685 20.6156 25.9685H13.3529C10.4013 25.9685 8 23.5672 8 20.6156V13.3529C8 10.4013 10.4013 8 13.3529 8ZM20.6156 24.1609C22.5736 24.1609 24.1609 22.5736 24.1609 20.6156V13.3529C24.1609 11.3949 22.5736 9.80763 20.6156 9.80763H13.3529C11.3949 9.80763 9.80763 11.3949 9.80763 13.3529V20.6156C9.80763 22.5736 11.3949 24.1609 13.3529 24.1609H20.6156Z" fill="white"/>
<path fill-rule="evenodd" clip-rule="evenodd" d="M12.3369 16.9842C12.3369 14.4217 14.4217 12.3369 16.9842 12.3369C19.5467 12.3369 21.6315 14.4217 21.6315 16.9842C21.6315 19.5467 19.5467 21.6315 16.9842 21.6315C14.4217 21.6315 12.3369 19.5467 12.3369 16.9842ZM14.1445 16.9842C14.1445 18.5525 15.4159 19.8239 16.9842 19.8239C18.5525 19.8239 19.8239 18.5525 19.8239 16.9842C19.8239 15.4159 18.5525 14.1445 16.9842 14.1445C15.4159 14.1445 14.1445 15.4159 14.1445 16.9842Z" fill="white"/>
<path d="M21.6409 13.4855C22.2559 13.4855 22.7545 12.9869 22.7545 12.3719C22.7545 11.7569 22.2559 11.2583 21.6409 11.2583C21.0259 11.2583 20.5273 11.7569 20.5273 12.3719C20.5273 12.9869 21.0259 13.4855 21.6409 13.4855Z" fill="white"/>
<defs>
<linearGradient id="paint0_linear" x1="0.113595" y1="-0.0567973" x2="5.30828e-07" y2="33.9432" gradientUnits="userSpaceOnUse">
<stop stop-color="#7024C4"/>
<stop offset="0.415461" stop-color="#C21975"/>
<stop offset="0.702206" stop-color="#C74C4D"/>
<stop offset="1" stop-color="#E09B3D"/>
</linearGradient>
</defs>
</svg>
