<svg width="27" height="32" viewBox="0 0 27 32" fill="none" xmlns="http://www.w3.org/2000/svg">
<path d="M26 13.2727C26 22.8182 13.5 31 13.5 31C13.5 31 1 22.8182 1 13.2727C1 10.0178 2.31696 6.89618 4.66116 4.5946C7.00537 2.29302 10.1848 1 13.5 1C16.8152 1 19.9946 2.29302 22.3388 4.5946C24.683 6.89618 26 10.0178 26 13.2727Z" fill="#F4BD42" stroke="#1E1E1E" stroke-width="1.4" stroke-linecap="round" stroke-linejoin="round"/>
<path d="M13.5007 17.3637C15.8018 17.3637 17.6673 15.5321 17.6673 13.2728C17.6673 11.0134 15.8018 9.18188 13.5007 9.18188C11.1995 9.18188 9.33398 11.0134 9.33398 13.2728C9.33398 15.5321 11.1995 17.3637 13.5007 17.3637Z" fill="#1E1E1E"/>
</svg>
