<svg width="24" height="23" viewBox="0 0 24 23" fill="none" xmlns="http://www.w3.org/2000/svg">
<path fill-rule="evenodd" clip-rule="evenodd" d="M12.4726 19.1539C12.1774 18.9955 11.8223 18.9955 11.5271 19.1539L6.15565 22.0358C5.42324 22.4288 4.55895 21.8086 4.69671 20.9889L5.73235 14.8267C5.7861 14.5068 5.68138 14.1807 5.45143 13.952L1.04939 9.57291C0.466059 8.99263 0.794052 7.99547 1.60795 7.87477L7.65602 6.97789C7.98338 6.92934 8.26551 6.72199 8.40959 6.42407L11.0996 0.861582C11.4637 0.10873 12.536 0.108729 12.9001 0.861581L15.5901 6.42407C15.7342 6.72199 16.0163 6.92934 16.3437 6.97789L22.3917 7.87477C23.2056 7.99547 23.5336 8.99263 22.9503 9.57291L18.5483 13.952C18.3183 14.1807 18.2136 14.5068 18.2674 14.8267L19.303 20.9889C19.4408 21.8086 18.5765 22.4288 17.844 22.0358L12.4726 19.1539Z" fill="#F1F1F1"/>
</svg>
