<svg width="75" height="31" viewBox="0 0 75 31" fill="none" xmlns="http://www.w3.org/2000/svg">
<path d="M0.0097694 16.2985C0.0097694 16.2985 0.00976895 13.2676 5.00918 12.282C8.3835 11.6158 14.5814 9.3718 17.5291 8.29657C18.5269 7.92952 19.4594 7.40333 20.2906 6.73825C22.8931 4.69296 29.696 0.00243814 37.5073 0.00243814C49.5773 0.00243814 59.0719 -0.313121 66.2084 6.2357C66.5857 6.57438 67.0754 6.75918 67.5814 6.75384H71.999C72.1303 6.75332 72.2603 6.77884 72.3817 6.82893C72.5031 6.87901 72.6134 6.95269 72.7064 7.04571C72.7993 7.13873 72.8731 7.24928 72.9234 7.37101C72.9738 7.49273 72.9997 7.62325 72.9997 7.75506V14.2376C73.5298 14.2376 74.0383 14.4489 74.4135 14.8251C74.7887 15.2012 75 15.7115 75.001 16.244V21.7838L70.0016 23.9732H2.00333C1.74102 23.9727 1.48138 23.9203 1.23924 23.819C0.997091 23.7177 0.777182 23.5695 0.592063 23.3828C0.406943 23.1962 0.26024 22.9747 0.16033 22.7311C0.0604203 22.4875 0.00925957 22.2265 0.0097694 21.963V16.2985Z" fill="#64696C"/>
<path d="M23.2799 8.4757C23.171 8.48002 23.0637 8.44854 22.9743 8.38604C22.8849 8.32354 22.8182 8.23343 22.7844 8.12941C22.7507 8.02539 22.7516 7.91313 22.7871 7.80969C22.8226 7.70625 22.8908 7.61728 22.9812 7.55629C25.9677 5.53827 30.4861 2.02428 37.5063 2.02428C37.5063 2.02428 57.31 0.649058 61.8944 5.88889C62.2125 6.2512 62.1077 6.78493 61.6268 6.80831L23.2799 8.4757Z" fill="white"/>
<path d="M0.193359 17.1824C0.193359 16.5903 0.251536 15.8033 0.44934 15.5929C0.47649 15.5618 0.495882 15.5618 0.503639 15.5618H4.6653C4.72471 15.5634 4.78228 15.5828 4.83065 15.6175C4.87901 15.6522 4.91597 15.7006 4.93679 15.7566C4.96191 15.8212 4.9694 15.8913 4.95849 15.9598C4.94758 16.0283 4.91867 16.0926 4.87474 16.1461L4.02146 17.0694C3.99516 17.0993 3.96297 17.1234 3.92692 17.1402C3.89087 17.157 3.85174 17.166 3.81202 17.1668L0.193359 17.1824Z" fill="white"/>
<path d="M4.66399 15.7573C4.68598 15.7592 4.7069 15.7677 4.72414 15.7816C4.74139 15.7954 4.75419 15.814 4.76095 15.8352C4.77483 15.8672 4.77928 15.9026 4.77379 15.9371C4.76829 15.9716 4.75307 16.0038 4.72992 16.03L3.88828 16.9533C3.87955 16.9635 3.86888 16.9718 3.85689 16.9779C3.8449 16.9839 3.83184 16.9874 3.81847 16.9883H0.397614C0.377095 16.5702 0.437689 16.1521 0.576026 15.7573H4.66399ZM4.66399 15.3677H0.502333C-0.0910811 15.3677 0.00588247 17.3779 0.00588247 17.3779H3.80684C3.87343 17.3771 3.93914 17.3624 3.99987 17.3349C4.06059 17.3075 4.11503 17.2677 4.15978 17.2182L5.01306 16.2949C5.08457 16.2197 5.13338 16.1257 5.15382 16.0238C5.17426 15.9219 5.16549 15.8163 5.12853 15.7192C5.09157 15.622 5.02793 15.5375 4.94501 15.4752C4.86209 15.413 4.7633 15.3757 4.66011 15.3677H4.66399Z" fill="#64696C"/>
<path d="M70.0138 14.0545C69.8954 14.0553 69.7783 14.0299 69.6708 13.9799C69.5633 13.93 69.4682 13.8568 69.3922 13.7656C69.3162 13.6743 69.2612 13.5674 69.2313 13.4523C69.2013 13.3372 69.197 13.2169 69.2187 13.1C69.4708 11.7598 70.2737 9.53535 72.8064 9.42627V14.0545H70.0138Z" fill="white"/>
<path d="M72.6127 9.63708V13.8601H70.0141C69.9243 13.8604 69.8355 13.8408 69.754 13.8028C69.6725 13.7648 69.6004 13.7093 69.5427 13.6401C69.4849 13.571 69.443 13.49 69.4199 13.4028C69.3969 13.3156 69.3931 13.2243 69.4091 13.1355C69.6961 11.62 70.4873 9.82798 72.6127 9.62929V9.63708ZM73.0006 9.23971C70.1964 9.23971 69.3082 11.5772 69.029 13.0771C69.0054 13.2208 69.0131 13.3679 69.0518 13.5083C69.0904 13.6487 69.1589 13.779 69.2526 13.8902C69.3463 14.0013 69.4629 14.0907 69.5944 14.1521C69.7259 14.2135 69.8691 14.2455 70.0141 14.2458H73.0006V9.22803V9.23971Z" fill="#64696C"/>
<path d="M37.1523 2.02441V7.85641" stroke="#64696C" stroke-width="2" stroke-linecap="round" stroke-linejoin="round"/>
<path d="M37.1523 11.752V20.0734" stroke="white" stroke-width="2" stroke-linecap="round" stroke-linejoin="round"/>
<path d="M58.3086 3.71582V7.17138" stroke="#64696C" stroke-width="2" stroke-linecap="round" stroke-linejoin="round"/>
<path d="M25.3438 5.95557V8.38653" stroke="#64696C" stroke-width="2" stroke-linecap="round" stroke-linejoin="round"/>
<path d="M11.0059 30.0004C14.3197 30.0004 17.006 27.3021 17.006 23.9736C17.006 20.6451 14.3197 17.9468 11.0059 17.9468C7.69218 17.9468 5.00586 20.6451 5.00586 23.9736C5.00586 27.3021 7.69218 30.0004 11.0059 30.0004Z" fill="#64696C" stroke="white" stroke-width="2" stroke-linecap="round" stroke-linejoin="round"/>
<path d="M58.3087 30.0004C61.6224 30.0004 64.3087 27.3021 64.3087 23.9736C64.3087 20.6451 61.6224 17.9468 58.3087 17.9468C54.9949 17.9468 52.3086 20.6451 52.3086 23.9736C52.3086 27.3021 54.9949 30.0004 58.3087 30.0004Z" fill="#64696C" stroke="white" stroke-width="2" stroke-linecap="round" stroke-linejoin="round"/>
<path d="M13.1275 26.0987C14.2983 24.9226 14.2983 23.0159 13.1275 21.8398C11.9567 20.6638 10.0584 20.6638 8.88755 21.8398C7.71672 23.0159 7.71673 24.9226 8.88756 26.0987C10.0584 27.2747 11.9567 27.2747 13.1275 26.0987Z" fill="white"/>
<path d="M60.4302 26.0996C61.6011 24.9236 61.6011 23.0168 60.4302 21.8408C59.2594 20.6648 57.3611 20.6648 56.1903 21.8408C55.0195 23.0168 55.0195 24.9236 56.1903 26.0996C57.3611 27.2757 59.2594 27.2757 60.4302 26.0996Z" fill="white"/>
</svg>
