<svg width="178" height="148" viewBox="0 0 178 148" fill="none" xmlns="http://www.w3.org/2000/svg">
<path d="M-281.753 85.3574C-281.753 120.791 -237.123 120.578 -237.123 120.578V107.012C-237.123 100.447 -229.248 75.0417 -199.494 75.0417C-166.885 75.0417 -158.797 103.815 -158.797 113.544V127.334L42.4114 128.698V119.821C42.4114 113.011 46.5036 75.2975 82.9067 75.2975C121.271 75.2975 122.081 109.164 122.081 118.904V129.114L159.805 127.067C159.805 127.067 174.021 126.119 174.021 115.345V107.47C174.021 107.47 176.493 104.699 176.493 103.207C176.493 101.715 177.229 93.7335 173.723 90.2274C170.217 86.7214 163.514 71.557 152.58 66.8894C141.646 62.2218 92.0501 47.4943 68.2751 46.6418C68.2751 46.6418 -9.7635 1.13786 -76.4954 1.13786C-76.4954 1.13786 -160.001 -1.78206 -190.927 19.2542C-190.927 19.2542 -222.896 36.3048 -258.756 36.7631C-262.411 36.7631 -269.541 37.0508 -269.541 46.6737C-269.541 46.6737 -274.794 52.6628 -274.794 66.9214C-274.794 66.9214 -282.861 70.5233 -282.861 77.4395C-282.893 85.4106 -281.753 83.3539 -281.753 85.3574Z" stroke="white" stroke-linecap="round" stroke-linejoin="round"/>
<path d="M68.2432 46.6204C68.2432 46.6204 60.0589 48.7517 57.7357 47.5049C30.4547 32.9159 -26.5691 13.4036 -26.5691 13.4036C-26.5691 13.4036 -28.1782 11.7945 -26.8674 8.1499" stroke="white" stroke-linecap="round" stroke-linejoin="round"/>
<path d="M173.989 107.449C168.096 113.427 136.158 114.674 122.059 114.12" stroke="white" stroke-linecap="round" stroke-linejoin="round"/>
<path d="M145.056 97.6659C143.468 93.7229 149.414 97.9855 161.989 95.6517C166.55 94.8099 168.671 95.8969 169.758 101.758C169.758 101.758 148.167 105.413 145.056 97.6659Z" stroke="white" stroke-linecap="round" stroke-linejoin="round"/>
<path d="M161.734 86.0074C161.734 86.0074 156.63 69.3831 122.795 69.3831C122.795 69.3831 124.83 86.0074 161.734 86.0074Z" stroke="white" stroke-linecap="round" stroke-linejoin="round"/>
<path d="M161.734 86.0074C161.734 86.0074 143.064 82.949 122.795 69.3831" stroke="white" stroke-linecap="round" stroke-linejoin="round"/>
<path d="M116.518 69.0847C116.518 69.0847 79.4644 59.4937 51.7571 58.5879" stroke="white" stroke-linecap="round" stroke-linejoin="round"/>
<path d="M-179.907 33.7152C-177.648 70.7684 -163.24 81.052 -155.397 98.5502C-147.554 116.048 -140.478 117.849 -133.018 118.137C-93.3007 119.672 -12.8856 120.876 26.9383 120.876C35.5382 120.876 45.8965 82.512 46.1949 66.4631C46.4933 50.4142 37.5417 45.0112 31.0198 41.9528C2.24684 28.4508 -38.4829 8.9811 -86.6189 9.20489C-86.6189 9.20489 -142.865 6.93501 -165.158 14.4586C-170.37 16.2276 -180.813 18.7319 -179.907 33.7152Z" stroke="white" stroke-linecap="round" stroke-linejoin="round"/>
<path d="M14.2777 53.8989L35.1221 55.0925C35.1221 55.0925 -31.0983 13.4037 -84.4775 15.4071L-72.7552 48.6665L-5.94866 52.6841" stroke="white" stroke-linecap="round" stroke-linejoin="round"/>
<path d="M35.708 90.1316C35.708 90.1316 34.8342 95.673 27.545 95.673C20.2559 95.673 -148.077 89.5561 -148.077 89.5561C-148.077 89.5561 -154.939 89.1085 -154.939 82.0964L35.708 90.1316Z" stroke="white" stroke-linecap="round" stroke-linejoin="round"/>
<path d="M7.12752 58.8756C7.12752 58.8756 12.8075 61.6144 8.65141 68.5838C8.65141 68.5838 17.1767 67.9977 19.8516 56.7976C19.8516 56.7976 14.3847 56.3606 9.78102 48.5919C5.17734 40.8232 -3.25207 40.6101 -4.97845 44.585C-6.36382 47.782 -9.17716 59.0887 4.35678 59.174C7.38327 59.174 12.9567 58.8756 9.78102 48.5919" stroke="white" stroke-linecap="round" stroke-linejoin="round"/>
<path d="M10.0361 56.5418C10.0361 56.5418 6.61536 43.9989 -2.86905 42.6135" stroke="white" stroke-linecap="round" stroke-linejoin="round"/>
<path d="M118.191 112.596C118.191 119.412 116.17 126.075 112.383 131.743C108.596 137.41 103.214 141.828 96.9164 144.436C90.619 147.044 83.6896 147.727 77.0043 146.397C70.319 145.067 64.1782 141.785 59.3583 136.965C54.5385 132.145 51.2562 126.005 49.9264 119.319C48.5966 112.634 49.2791 105.705 51.8876 99.4072C54.4961 93.1098 58.9133 87.7273 64.5808 83.9404C70.2483 80.1535 76.9115 78.1322 83.7278 78.1322C88.254 78.1308 92.7362 79.0213 96.9181 80.7528C101.1 82.4842 104.9 85.0227 108.1 88.2232C111.301 91.4238 113.839 95.2236 115.571 99.4055C117.302 103.587 118.193 108.07 118.191 112.596V112.596Z" stroke="white" stroke-linecap="round" stroke-linejoin="round"/>
<path d="M106.597 112.596C106.597 117.119 105.255 121.54 102.743 125.301C100.23 129.062 96.6579 131.993 92.4792 133.724C88.3004 135.455 83.7021 135.908 79.266 135.025C74.8298 134.143 70.7549 131.965 67.5566 128.767C64.3582 125.568 62.1802 121.493 61.2978 117.057C60.4153 112.621 60.8682 108.023 62.5991 103.844C64.33 99.6653 67.2613 96.0936 71.0221 93.5807C74.7829 91.0678 79.2044 89.7266 83.7275 89.7266C86.7311 89.7252 89.7056 90.3157 92.4808 91.4645C95.2561 92.6133 97.7777 94.2978 99.9016 96.4217C102.025 98.5455 103.71 101.067 104.859 103.842C106.007 106.618 106.598 109.592 106.597 112.596V112.596Z" stroke="white" stroke-linecap="round" stroke-linejoin="round"/>
<path d="M103.623 112.596C103.623 116.531 102.456 120.378 100.27 123.649C98.0838 126.921 94.9765 129.471 91.3409 130.977C87.7054 132.483 83.705 132.877 79.8456 132.109C75.9861 131.342 72.441 129.447 69.6585 126.664C66.876 123.882 64.9811 120.337 64.2134 116.477C63.4457 112.618 63.8397 108.617 65.3456 104.982C66.8515 101.346 69.4016 98.2391 72.6735 96.0529C75.9454 93.8667 79.792 92.6998 83.7271 92.6998C89.0038 92.6998 94.0644 94.796 97.7956 98.5272C101.527 102.258 103.623 107.319 103.623 112.596V112.596Z" stroke="white" stroke-linecap="round" stroke-linejoin="round"/>
<path d="M94.1602 112.596C94.1602 114.659 93.5483 116.676 92.4019 118.392C91.2555 120.108 89.6261 121.445 87.7198 122.234C85.8134 123.024 83.7157 123.231 81.692 122.828C79.6682 122.426 77.8092 121.432 76.3502 119.973C74.8911 118.514 73.8975 116.655 73.4949 114.631C73.0924 112.607 73.2989 110.51 74.0886 108.603C74.8782 106.697 76.2154 105.067 77.9311 103.921C79.6468 102.775 81.6639 102.163 83.7273 102.163C85.0977 102.161 86.455 102.43 87.7214 102.954C88.9878 103.478 90.1385 104.246 91.1076 105.215C92.0766 106.184 92.8451 107.335 93.3689 108.602C93.8927 109.868 94.1616 111.225 94.1602 112.596V112.596Z" stroke="white" stroke-linecap="round" stroke-linejoin="round"/>
<path d="M85.209 106.255C85.209 106.55 85.1215 106.839 84.9576 107.084C84.7936 107.329 84.5606 107.52 84.288 107.633C84.0154 107.746 83.7154 107.776 83.426 107.718C83.1366 107.661 82.8707 107.519 82.6621 107.31C82.4534 107.101 82.3114 106.835 82.2538 106.546C82.1962 106.257 82.2258 105.957 82.3387 105.684C82.4516 105.411 82.6428 105.178 82.8882 105.014C83.1335 104.851 83.422 104.763 83.7171 104.763C84.1127 104.763 84.4922 104.92 84.772 105.2C85.0518 105.48 85.209 105.859 85.209 106.255V106.255Z" stroke="white" stroke-linecap="round" stroke-linejoin="round"/>
<path d="M85.209 118.905C85.209 119.2 85.1215 119.488 84.9576 119.733C84.7936 119.979 84.5606 120.17 84.288 120.283C84.0154 120.396 83.7154 120.425 83.426 120.368C83.1366 120.31 82.8707 120.168 82.6621 119.959C82.4534 119.751 82.3114 119.485 82.2538 119.196C82.1962 118.906 82.2258 118.606 82.3387 118.334C82.4516 118.061 82.6428 117.828 82.8882 117.664C83.1335 117.5 83.422 117.413 83.7171 117.413C84.1127 117.413 84.4922 117.57 84.772 117.85C85.0518 118.129 85.209 118.509 85.209 118.905V118.905Z" stroke="white" stroke-linecap="round" stroke-linejoin="round"/>
<path d="M91.6025 112.596C91.6025 112.891 91.5151 113.179 91.3511 113.425C91.1872 113.67 90.9541 113.861 90.6815 113.974C90.4089 114.087 90.109 114.117 89.8195 114.059C89.5301 114.002 89.2643 113.859 89.0556 113.651C88.847 113.442 88.7049 113.176 88.6473 112.887C88.5898 112.597 88.6193 112.298 88.7323 112.025C88.8452 111.752 89.0364 111.519 89.2817 111.355C89.5271 111.191 89.8155 111.104 90.1106 111.104C90.5063 111.104 90.8858 111.261 91.1655 111.541C91.4453 111.821 91.6025 112.2 91.6025 112.596Z" stroke="white" stroke-linecap="round" stroke-linejoin="round"/>
<path d="M78.8887 112.596C78.8887 112.891 78.8012 113.179 78.6372 113.425C78.4733 113.67 78.2403 113.861 77.9677 113.974C77.695 114.087 77.3951 114.117 77.1057 114.059C76.8163 114.002 76.5504 113.859 76.3418 113.651C76.1331 113.442 75.991 113.176 75.9335 112.887C75.8759 112.597 75.9054 112.298 76.0184 112.025C76.1313 111.752 76.3225 111.519 76.5679 111.355C76.8132 111.191 77.1017 111.104 77.3967 111.104C77.7924 111.104 78.1719 111.261 78.4517 111.541C78.7315 111.821 78.8887 112.2 78.8887 112.596Z" stroke="white" stroke-linecap="round" stroke-linejoin="round"/>
<path d="M49.2744 112.596H43.3387" stroke="white" stroke-linecap="round" stroke-linejoin="round"/>
<path d="M121.75 110.582H118.372" stroke="white" stroke-linecap="round" stroke-linejoin="round"/>
</svg>
