<svg width="34" height="34" viewBox="0 0 34 34" fill="none" xmlns="http://www.w3.org/2000/svg">
<circle cx="17" cy="17" r="17" fill="white"/>
<path d="M17 0C7.61175 0 0 7.61175 0 17C0 26.3882 7.61175 34 17 34C26.3882 34 34 26.3882 34 17C34 7.61175 26.3882 0 17 0ZM23.2914 23.9303C20.3136 24.1343 13.6807 24.1343 10.7072 23.9303C7.48283 23.7093 7.10742 22.1312 7.08333 17C7.10742 11.8589 7.48708 10.2907 10.7072 10.0697C13.6807 9.86567 20.315 9.86567 23.2914 10.0697C26.5172 10.2907 26.8912 11.8688 26.9167 17C26.8912 22.1411 26.5129 23.7093 23.2914 23.9303ZM14.1667 13.6822L21.1324 16.9943L14.1667 20.3178V13.6822Z" fill="#F52929"/>
</svg>
