<svg width="112" height="73" viewBox="0 0 112 20" fill="none" xmlns="http://www.w3.org/2000/svg">
<path d="M6.49369e-10 33.2278V25.6073C-1.4254e-06 25.4177 0.0372005 25.23 0.109458 25.0549C0.181715 24.8798 0.2876 24.7208 0.421061 24.587C0.554523 24.4532 0.712936 24.3473 0.887184 24.2752C1.06143 24.2032 1.24808 24.1665 1.43646 24.1672H2.87294V15.7174C2.87126 15.03 3.11391 14.3647 3.55706 13.8416C4.00021 13.3186 4.61464 12.9723 5.28932 12.8653H17.5383C18.7763 12.8622 19.9785 12.4465 20.9569 11.683L34.375 1.18232C35.3494 0.415425 36.5511 -0.00081809 37.788 2.17208e-05H61.1446C61.5228 -0.00145362 61.8976 0.0722425 62.2474 0.216884C62.5973 0.361526 62.9153 0.574269 63.1833 0.8429C63.4512 1.11153 63.6638 1.43077 63.8089 1.78229C63.954 2.13381 64.0287 2.51071 64.0287 2.89135V34.6735H1.42533C1.04629 34.6705 0.683766 34.5169 0.41678 34.2461C0.149793 33.9753 -1.13887e-05 33.6093 6.49369e-10 33.2278Z" fill="#1E1E1E"/>
<path d="M82.0127 27.9496C83.201 25.6749 84.9706 23.7603 87.1391 22.4031C89.3075 21.0459 91.7963 20.2953 94.349 20.2285C96.9018 20.1617 99.426 20.7812 101.662 22.0231C103.897 23.2651 105.763 25.0846 107.067 27.294" stroke="#1E1E1E" stroke-width="2" stroke-linecap="round" stroke-linejoin="round"/>
<path d="M3.14062 24.4473V16.8828H5.16726C5.47441 16.8828 5.76898 17.0055 5.98616 17.2241C6.20334 17.4427 6.32534 17.7391 6.32534 18.0482V23.2874C6.32534 23.5965 6.20334 23.8929 5.98616 24.1115C5.76898 24.3301 5.47441 24.4529 5.16726 24.4529L3.14062 24.4473Z" fill="white"/>
<path d="M5.16733 17.163C5.40064 17.163 5.62439 17.2563 5.78936 17.4223C5.95434 17.5884 6.04702 17.8135 6.04702 18.0483V23.2875C6.04702 23.5223 5.95434 23.7475 5.78936 23.9135C5.62439 24.0795 5.40064 24.1728 5.16733 24.1728H3.41908V17.1686H5.16733V17.163ZM5.16733 16.6083H2.8623V24.7331H5.16733C5.5483 24.7331 5.91368 24.5808 6.18307 24.3097C6.45246 24.0386 6.60379 23.6709 6.60379 23.2875V18.054C6.60453 17.8639 6.56787 17.6756 6.49595 17.4998C6.42402 17.3241 6.31823 17.1644 6.1847 17.0301C6.05116 16.8957 5.89253 16.7892 5.71791 16.7168C5.5433 16.6444 5.35617 16.6075 5.16733 16.6083Z" fill="#1E1E1E"/>
<path d="M110.513 34.6734H63.4717V12.8652H109.127V27.9158H110.563C110.944 27.9173 111.308 28.0701 111.577 28.3409C111.847 28.6117 111.998 28.9785 112 29.3615V33.2278C111.999 33.4217 111.96 33.6136 111.884 33.792C111.809 33.9704 111.698 34.1317 111.56 34.2665C111.421 34.4013 111.257 34.5067 111.077 34.5766C110.898 34.6465 110.706 34.6794 110.513 34.6734Z" fill="#1E1E1E"/>
<path d="M106.527 19.9254L106.494 19.8805C106.41 19.7978 106.362 19.685 106.36 19.5667V17.3254C106.36 17.2673 106.372 17.2097 106.394 17.156C106.416 17.1023 106.448 17.0535 106.489 17.0124C106.53 16.9713 106.579 16.9387 106.632 16.9164C106.685 16.8942 106.742 16.8828 106.8 16.8828H108.799V23.3714L106.527 19.9254Z" fill="white"/>
<path d="M108.521 17.163V22.4414L106.761 19.7518C106.74 19.7212 106.716 19.6931 106.689 19.6677C106.659 19.6357 106.641 19.594 106.639 19.55V17.3087C106.639 17.2656 106.656 17.2243 106.686 17.1938C106.716 17.1633 106.757 17.1462 106.8 17.1462H108.521V17.163ZM109.077 16.5859H106.8C106.61 16.5859 106.427 16.662 106.292 16.7976C106.158 16.9331 106.082 17.117 106.082 17.3087V19.55C106.083 19.7414 106.159 19.9245 106.294 20.0599L109.077 24.3073V16.6027V16.5859Z" fill="#1E1E1E"/>
<path d="M27.2369 11.5991L36.5573 3.25575C36.822 3.02146 37.1624 2.89202 37.5149 2.89154H59.7023C60.0823 2.89154 60.4468 3.04307 60.716 3.31297C60.9853 3.58287 61.1372 3.94916 61.1387 4.3316V11.4198C61.1372 11.8028 60.9854 12.1696 60.7164 12.4404C60.4473 12.7112 60.0828 12.864 59.7023 12.8655H27.7102C27.5641 12.8654 27.4216 12.8206 27.3015 12.7369C27.1814 12.6532 27.0896 12.5347 27.0382 12.3971C26.9867 12.2595 26.9782 12.1095 27.0137 11.9669C27.0493 11.8243 27.1271 11.696 27.2369 11.5991Z" fill="white"/>
<path d="M53.9619 2.89154V12.8655" stroke="#1E1E1E" stroke-width="2" stroke-linecap="round" stroke-linejoin="round"/>
<path d="M53.9619 18.4684V29.0699" stroke="white" stroke-width="2" stroke-linecap="round" stroke-linejoin="round"/>
<path d="M37.2148 2.89154V12.8655" stroke="#1E1E1E" stroke-width="2" stroke-linecap="round" stroke-linejoin="round"/>
<path d="M24.8175 42.6827C29.2123 40.8507 31.2993 35.7799 29.4789 31.357C27.6585 26.934 22.62 24.8336 18.2252 26.6657C13.8303 28.4977 11.7433 33.5685 13.5637 37.9914C15.3841 42.4144 20.4226 44.5148 24.8175 42.6827Z" fill="#1E1E1E" stroke="white" stroke-width="2" stroke-linecap="round" stroke-linejoin="round"/>
<path d="M25.705 35.6574C26.251 33.3292 24.8183 30.9964 22.5049 30.4469C20.1915 29.8974 17.8735 31.3393 17.3275 33.6675C16.7815 35.9957 18.2142 38.3285 20.5276 38.878C22.841 39.4275 25.159 37.9856 25.705 35.6574Z" fill="white"/>
<path d="M98.0226 42.6796C102.417 40.8476 104.504 35.7768 102.684 31.3538C100.864 26.9309 95.8251 24.8305 91.4303 26.6626C87.0354 28.4946 84.9484 33.5653 86.7688 37.9883C88.5892 42.4113 93.6277 44.5117 98.0226 42.6796Z" fill="#1E1E1E" stroke="white" stroke-width="2" stroke-linecap="round" stroke-linejoin="round"/>
<path d="M97.7665 37.7354C99.4473 36.0439 99.4473 33.3014 97.7665 31.6099C96.0858 29.9184 93.3608 29.9184 91.68 31.6099C89.9992 33.3014 89.9992 36.0439 91.68 37.7354C93.3608 39.4269 96.0858 39.4269 97.7665 37.7354Z" fill="white"/>
</svg>
