<svg width="101" height="73" viewBox="0 0 101 20" fill="none" xmlns="http://www.w3.org/2000/svg">
<path d="M99.5611 23.9384H98.15V12.2606C98.1514 11.7277 98.0762 11.1974 97.9269 10.686L95.9804 4.02336C95.6408 2.86242 94.9362 1.84313 93.9721 1.11791C93.008 0.392687 91.8361 0.000501654 90.6317 1.73655e-07H34.6185C31.8836 -0.000483297 29.2437 1.00857 27.2007 2.8354L17.563 11.4593C16.5338 12.3745 15.2669 12.9769 13.9099 13.1964L5.30405 15.4378C4.62718 15.5436 4.01038 15.8894 3.56534 16.4126C3.1203 16.9358 2.87643 17.6018 2.87791 18.29V23.3332H1.43896C1.05829 23.3332 0.693137 23.4848 0.423441 23.7547C0.153744 24.0246 0.00147546 24.3909 0 24.7733V33.2179C0.00146893 33.6009 0.153545 33.9678 0.423083 34.2386C0.692621 34.5094 1.05778 34.6622 1.43896 34.6636H99.5611C100.359 34.6636 101 33.6326 101 32.3662V26.2022C101 24.9639 100.381 23.9384 99.5611 23.9384Z" fill="#1E1E1E"/>
<path d="M51.8359 17.0628V29.0712" stroke="white" stroke-width="2" stroke-linecap="round" stroke-linejoin="round"/>
<path d="M22.2989 11.4592C22.1852 11.4602 22.0739 11.4263 21.9799 11.3619C21.886 11.2976 21.8138 11.206 21.7732 11.0993C21.7325 10.9926 21.7253 10.876 21.7525 10.765C21.7796 10.6541 21.8399 10.5542 21.9252 10.4786L28.618 4.51084C30.2522 3.04897 32.3641 2.24132 34.5523 2.24139H51.842V11.4592H22.2989Z" fill="white"/>
<path d="M3.15625 23.6246V20.2625H5.10832C6.74248 20.2625 8.02527 22.0108 8.16471 23.6246H3.15625Z" fill="white"/>
<path d="M5.10886 20.5426C6.46973 20.5426 7.59078 21.9603 7.84734 23.3444H3.43566V20.5426H5.10886ZM5.10886 19.9822H2.87793V23.9047H8.45527C8.45527 22.0443 6.95496 19.9822 5.10886 19.9822Z" fill="#1E1E1E"/>
<path d="M97.838 11.7396H96.1641V17.9035H97.838V11.7396Z" fill="white"/>
<path d="M97.5597 12.0198V17.6233H96.4437V12.0198H97.5597ZM98.1177 11.4594H95.8857V18.1837H98.1177V11.4594Z" fill="#1E1E1E"/>
<path d="M32.0645 2.24139V11.4592" stroke="#1E1E1E" stroke-width="2" stroke-linecap="round" stroke-linejoin="round"/>
<path d="M24.8739 42.6813C29.2763 40.8491 31.367 35.7782 29.5434 31.3551C27.7198 26.9319 22.6727 24.8315 18.2702 26.6636C13.8677 28.4957 11.7771 33.5666 13.6007 37.9898C15.4242 42.413 20.4714 44.5134 24.8739 42.6813Z" fill="#1E1E1E" stroke="white" stroke-width="2" stroke-linecap="round" stroke-linejoin="round"/>
<path d="M25.7613 35.6593C26.3082 33.331 24.873 30.9981 22.5556 30.4486C20.2382 29.899 17.9162 31.341 17.3693 33.6693C16.8223 35.9976 18.2575 38.3305 20.5749 38.88C22.8923 39.4295 25.2143 37.9876 25.7613 35.6593Z" fill="white"/>
<path d="M87.0477 42.6826C91.4502 40.8505 93.5408 35.7796 91.7172 31.3564C89.8937 26.9332 84.8465 24.8328 80.444 26.6649C76.0416 28.4971 73.9509 33.568 75.7745 37.9911C77.5981 42.4143 82.6453 44.5147 87.0477 42.6826Z" fill="#1E1E1E" stroke="white" stroke-width="2" stroke-linecap="round" stroke-linejoin="round"/>
<path d="M88.0145 35.3768C88.396 33.0155 86.7999 30.7905 84.4496 30.4072C82.0994 30.0239 79.8848 31.6274 79.5033 33.9887C79.1218 36.3501 80.7178 38.5751 83.0681 38.9584C85.4184 39.3417 87.6329 37.7381 88.0145 35.3768Z" fill="white"/>
</svg>
