<svg width="94" height="73" viewBox="0 0 94 73" fill="none" xmlns="http://www.w3.org/2000/svg">
<path d="M23.3668 41.7207C24.655 41.5782 25.8812 41.093 26.9172 40.3159C30.6416 37.5174 40.3394 30.6891 49.3922 28.3608C68.3335 23.497 82.081 33.6387 87.5329 39.9801C87.9757 40.5048 88.2181 41.169 88.2172 41.855V49.3605L92.4015 51.4482C92.8819 51.6875 93.286 52.0557 93.5684 52.5115C93.8508 52.9672 94.0002 53.4925 94 54.0284V58.2877C94.0007 58.6664 93.9265 59.0416 93.7816 59.3916C93.6367 59.7417 93.424 60.0597 93.1556 60.3275C92.8872 60.5953 92.5685 60.8076 92.2177 60.9522C91.8669 61.0968 91.4909 61.1708 91.1114 61.1701H2.89421C2.5144 61.1708 2.13818 61.0968 1.78708 60.9523C1.43597 60.8078 1.11686 60.5956 0.848032 60.3278C0.579206 60.0601 0.365933 59.7421 0.220417 59.392C0.0749005 59.0419 -7.16007e-07 58.6667 0 58.2877V53.8101C0.00145086 53.1199 0.250116 52.4529 0.701116 51.9295C2.73716 49.5564 9.38935 43.2375 23.3668 41.7207Z" fill="#1E1E1E"/>
<path d="M24.0061 66.3648C27.6772 62.7015 27.6772 56.7621 24.0061 53.0988C20.3349 49.4354 14.3828 49.4354 10.7116 53.0988C7.0405 56.7621 7.04051 62.7015 10.7117 66.3648C14.3828 70.0281 20.3349 70.0281 24.0061 66.3648Z" fill="#1E1E1E" stroke="white" stroke-width="2" stroke-linecap="round" stroke-linejoin="round"/>
<path d="M19.1528 64.0635C21.5511 63.0722 22.69 60.3286 21.6966 57.9354C20.7032 55.5422 17.9537 54.4058 15.5554 55.3971C13.1571 56.3884 12.0182 59.132 13.0116 61.5252C14.005 63.9183 16.7545 65.0548 19.1528 64.0635Z" fill="white"/>
<path d="M82.2854 66.367C85.9565 62.7037 85.9565 56.7643 82.2854 53.101C78.6142 49.4377 72.6621 49.4377 68.991 53.101C65.3198 56.7643 65.3198 62.7037 68.991 66.367C72.6621 70.0303 78.6142 70.0303 82.2854 66.367Z" fill="#1E1E1E" stroke="white" stroke-width="2" stroke-linecap="round" stroke-linejoin="round"/>
<path d="M77.436 64.0668C79.8343 63.0755 80.9732 60.3318 79.9798 57.9387C78.9864 55.5455 76.2369 54.409 73.8386 55.4003C71.4403 56.3916 70.3014 59.1352 71.2948 61.5284C72.2882 63.9216 75.0377 65.058 77.436 64.0668Z" fill="white"/>
<path d="M81.5253 46.6461C81.4471 46.6115 81.3806 46.5551 81.3338 46.4836C81.287 46.4121 81.262 46.3286 81.2617 46.2432V44.4074C81.2617 44.2901 81.3084 44.1776 81.3915 44.0947C81.4746 44.0118 81.5873 43.9652 81.7048 43.9652H87.9307V49.467L81.5253 46.6461Z" fill="white"/>
<path d="M87.6622 44.2617V49.0527L81.6494 46.3718C81.6217 46.3585 81.5982 46.3379 81.5814 46.3123C81.5646 46.2866 81.5551 46.2569 81.5541 46.2262V44.4072C81.5541 44.3642 81.5712 44.3229 81.6017 44.2925C81.6322 44.262 81.6736 44.2449 81.7167 44.2449H87.6622V44.2617ZM88.2231 43.6852H81.7167C81.5248 43.6852 81.3408 43.7613 81.2051 43.8967C81.0694 44.0321 80.9932 44.2157 80.9932 44.4072V46.2094C80.9945 46.3477 81.0353 46.4828 81.1108 46.5988C81.1863 46.7147 81.2934 46.8069 81.4194 46.8643L88.2231 49.9202V43.702V43.6852Z" fill="#1E1E1E"/>
<path d="M78.4068 36.2302C78.4435 36.0832 78.4328 35.9285 78.3765 35.7879C78.3201 35.6473 78.2209 35.5279 78.0928 35.4466C73.2298 32.4131 65.8877 29.7042 59.9367 29.7042C56.6379 29.7241 53.3582 30.2064 50.194 31.137C45.5442 32.4747 37.372 37.1481 32.3632 40.204C32.2285 40.2864 32.1245 40.4105 32.0671 40.5573C32.0097 40.7041 32.002 40.8657 32.0452 41.0173C32.0884 41.1689 32.1802 41.3022 32.3065 41.3969C32.4328 41.4916 32.5866 41.5425 32.7446 41.5417H76.4942C76.6576 41.5401 76.8158 41.4842 76.9438 41.3829C77.0718 41.2815 77.1623 41.1405 77.2009 40.982L78.4068 36.2302Z" fill="white"/>
<path d="M36.5703 37.7077V41.5416" stroke="#1E1E1E" stroke-width="2" stroke-linecap="round" stroke-linejoin="round"/>
<path d="M53.7285 30.2972V41.5415" stroke="#1E1E1E" stroke-width="2" stroke-linecap="round" stroke-linejoin="round"/>
<path d="M53.7285 47.1383V55.5729" stroke="white" stroke-width="2" stroke-linecap="round" stroke-linejoin="round"/>
<path d="M71.1943 32.3792V41.5414" stroke="#1E1E1E" stroke-width="2" stroke-linecap="round" stroke-linejoin="round"/>
<path d="M5.29491 49.1309L4.8462 48.5712C4.8462 48.5712 2.88308 50.2503 1.81738 51.2746H4.3414C4.47233 51.2733 4.6025 51.2544 4.72842 51.2186C4.92923 51.1474 5.10975 51.0288 5.25454 50.8728C5.39933 50.7168 5.50407 50.5281 5.55976 50.3228C5.61545 50.1176 5.62045 49.902 5.57433 49.6944C5.5282 49.4868 5.43231 49.2934 5.29491 49.1309Z" fill="white" stroke="#1E1E1E" stroke-linecap="round" stroke-linejoin="round"/>
<path d="M57.2977 0L48.4662 16.2368L46.0249 11.6183L37.1934 20.0614L46.1685 4.40196L48.6816 8.51528L57.2977 0Z" fill="#1E1E1E"/>
</svg>
