<svg width="95" height="73" viewBox="0 0 95 20" fill="none" xmlns="http://www.w3.org/2000/svg">
<path d="M94.8647 30.8726L92.0632 21.4859L92.0128 21.3638L91.9287 21.092C91.8336 20.8071 91.6504 20.559 91.4051 20.3828C91.1597 20.2066 90.8647 20.1112 90.5616 20.1101H88.6173L83.1936 4.02174C83.0838 3.68863 82.8871 3.39012 82.6234 3.15634C82.3598 2.92257 82.0385 2.76181 81.692 2.69029C73.9943 1.172 66.1835 0.283219 58.3386 0.0329419C49.4284 -0.287143 40.591 1.73006 32.7216 5.88022L21.8966 12.7705C20.1117 13.915 18.0894 14.6469 15.9798 14.9119C3.76523 16.4098 1.30691e-09 27.4497 1.30691e-09 27.4497V31.738C-2.29218e-05 32.4934 0.301503 33.2182 0.838863 33.7544C1.37622 34.2906 2.10585 34.5948 2.86875 34.6006H92.1136C92.5678 34.5999 93.0153 34.4932 93.4201 34.2893C93.8248 34.0854 94.1754 33.7899 94.4433 33.4269C94.7112 33.0638 94.889 32.6434 94.9622 32.1996C95.0354 31.7558 95.002 31.3012 94.8647 30.8726Z" fill="#1E1E1E"/>
<path d="M29.494 11.6276L34.1726 8.62077C41.0599 5.02134 48.7295 3.13811 56.5174 3.13409C57.0777 3.13409 57.638 3.13409 58.2263 3.13409C65.1937 3.36643 72.1341 4.10815 78.9911 5.35317C79.1941 5.39209 79.3863 5.47368 79.5548 5.59243C79.7232 5.71118 79.8639 5.86432 79.9675 6.04153C80.0711 6.21874 80.135 6.41588 80.1551 6.61966C80.1751 6.82343 80.1508 7.02908 80.0837 7.22274L78.4644 11.9549C78.367 12.2387 78.1822 12.485 77.9359 12.6592C77.6896 12.8334 77.3943 12.9266 77.0917 12.9258H29.8862C29.7354 12.9202 29.5901 12.868 29.4708 12.7765C29.3514 12.6851 29.264 12.5589 29.2208 12.4157C29.1775 12.2726 29.1806 12.1196 29.2296 11.9782C29.2786 11.8369 29.3711 11.7143 29.494 11.6276Z" fill="white" stroke="#1E1E1E" stroke-linecap="round" stroke-linejoin="round"/>
<path d="M0.431641 27.1723C1.12751 25.5871 1.99348 24.0806 3.01463 22.6787L3.84388 23.5053C4.03822 23.6875 4.1603 23.9325 4.18805 24.196C4.2158 24.4596 4.14738 24.7242 3.99516 24.9422C3.52879 25.6513 3.11495 26.3929 2.75689 27.1613L0.431641 27.1723Z" fill="#FAFAFA"/>
<path d="M3.04177 23.0893L3.64689 23.6884C3.79466 23.8306 3.88695 24.0199 3.90745 24.2229C3.92796 24.4259 3.87536 24.6296 3.75895 24.7979C3.31794 25.4758 2.92299 26.1819 2.57672 26.9116H0.895813C1.49933 25.5789 2.22714 24.3048 3.06978 23.1059L3.04177 23.0893ZM3.01935 22.2737C1.51214 23.9935 0.0273438 27.4664 0.0273438 27.4664H2.96332C3.33559 26.6465 3.76819 25.8547 4.25762 25.0975C4.43832 24.8239 4.51855 24.4971 4.48489 24.1719C4.45123 23.8467 4.30572 23.5428 4.07272 23.3112L3.01935 22.2737Z" fill="#1E1E1E"/>
<path d="M86.4204 20.3875L84.8851 15.0118C84.8179 14.8053 84.8011 14.586 84.8362 14.3719C84.8713 14.1578 84.9572 13.955 85.0868 13.7802C85.3067 13.4819 85.6373 13.2824 86.0057 13.2254L88.2469 20.3819L86.4204 20.3875Z" fill="white"/>
<path d="M85.8218 13.5635L87.8725 20.1098H86.6343L85.1495 14.9116C85.0965 14.7474 85.0841 14.573 85.1133 14.4031C85.1426 14.2332 85.2126 14.0727 85.3176 13.9352C85.4448 13.7621 85.62 13.6291 85.8218 13.5524V13.5635ZM86.2084 12.931C85.9475 12.9337 85.6907 12.9965 85.4585 13.1145C85.2263 13.2324 85.0251 13.4023 84.8707 13.6106C84.7163 13.8189 84.613 14.06 84.569 14.3147C84.525 14.5694 84.5415 14.8307 84.6172 15.078L86.2084 20.6534H88.6289L86.2084 12.931Z" fill="#1E1E1E"/>
<path d="M18.7812 43C23.5683 43 27.449 39.1575 27.449 34.4177C27.449 29.6778 23.5683 25.8354 18.7812 25.8354C13.994 25.8354 10.1133 29.6778 10.1133 34.4177C10.1133 39.1575 13.994 43 18.7812 43Z" fill="#1E1E1E" stroke="#FAFAFA" stroke-width="2" stroke-linecap="round" stroke-linejoin="round"/>
<path d="M22.9988 35.3913C23.5483 33.0862 22.1064 30.7765 19.7784 30.2325C17.4503 29.6884 15.1176 31.116 14.5681 33.4211C14.0187 35.7262 15.4605 38.0358 17.7886 38.5799C20.1166 39.1239 22.4493 37.6963 22.9988 35.3913Z" fill="#FAFAFA"/>
<path d="M81.5019 43C86.289 43 90.1697 39.1575 90.1697 34.4177C90.1697 29.6778 86.289 25.8354 81.5019 25.8354C76.7147 25.8354 72.834 29.6778 72.834 34.4177C72.834 39.1575 76.7147 43 81.5019 43Z" fill="#1E1E1E" stroke="white" stroke-width="2" stroke-linecap="round" stroke-linejoin="round"/>
<path d="M85.7156 35.393C86.2651 33.088 84.8232 30.7783 82.4952 30.2342C80.1671 29.6902 77.8344 31.1178 77.2849 33.4229C76.7355 35.7279 78.1773 38.0376 80.5054 38.5816C82.8334 39.1257 85.1661 37.6981 85.7156 35.393Z" fill="white"/>
<path d="M50.1406 3.56116V12.9423" stroke="#1E1E1E" stroke-width="2" stroke-linecap="round" stroke-linejoin="round"/>
<path d="M50.1406 18.4901V29.0529" stroke="white" stroke-width="2" stroke-linecap="round" stroke-linejoin="round"/>
<path d="M32.3848 9.76898V12.9423" stroke="#1E1E1E" stroke-width="2" stroke-linecap="round" stroke-linejoin="round"/>
<path d="M72.834 4.39368V12.9427" stroke="#1E1E1E" stroke-width="2" stroke-linecap="round" stroke-linejoin="round"/>
</svg>
