<svg width="108" height="73" viewBox="0 0 108 20" fill="none" xmlns="http://www.w3.org/2000/svg">
<path d="M24.8179 20.1448C24.6474 20.1461 24.4787 20.1096 24.3239 20.038C24.1692 19.9664 24.0322 19.8615 23.9228 19.7307C23.8133 19.6 23.7342 19.4467 23.691 19.2817C23.6478 19.1168 23.6417 18.9444 23.673 18.7768C24.036 16.8559 25.1921 13.6675 28.8391 13.5111V20.1448H24.8179Z" fill="white"/>
<path d="M28.5596 13.8124V19.8654H24.8177C24.6883 19.8658 24.5605 19.8378 24.4431 19.7833C24.3258 19.7288 24.2219 19.6492 24.1388 19.5501C24.0557 19.451 23.9953 19.3348 23.9621 19.2099C23.9289 19.0849 23.9235 18.9541 23.9464 18.8268C24.3597 16.6546 25.4991 14.086 28.5596 13.8012V13.8124ZM29.1181 13.2428C25.0802 13.2428 23.8012 16.5932 23.3991 18.743C23.3651 18.949 23.3763 19.1599 23.4319 19.3612C23.4875 19.5624 23.5862 19.7491 23.7211 19.9085C23.856 20.0678 24.024 20.1959 24.2133 20.2839C24.4027 20.3719 24.6089 20.4178 24.8177 20.4182H29.1181V13.2261V13.2428Z" fill="#1E1E1E"/>
<path d="M0.0136773 23.3612C0.0136773 23.3612 0.0136767 19.0169 7.21274 17.6041C12.0717 16.6493 20.9965 13.4329 25.2411 11.8917C26.678 11.3656 28.0207 10.6114 29.2176 9.65815C32.9652 6.72657 42.7612 0.00349467 54.0094 0.00349467C71.3899 0.00349467 85.062 -0.448806 95.3384 8.93784C95.8817 9.42328 96.5869 9.68816 97.3155 9.6805H103.677C103.866 9.67976 104.053 9.71634 104.228 9.78813C104.403 9.85992 104.561 9.96552 104.695 10.0988C104.829 10.2322 104.935 10.3906 105.008 10.5651C105.08 10.7396 105.118 10.9267 105.118 11.1156V20.4073C105.881 20.4073 106.613 20.7101 107.154 21.2492C107.694 21.7884 107.998 22.5198 108 23.283V31.2234L100.801 34.3616H2.88437C2.50665 34.3609 2.13277 34.2858 1.78409 34.1406C1.4354 33.9954 1.11874 33.7829 0.852168 33.5154C0.5856 33.2478 0.37435 32.9304 0.230482 32.5812C0.0866136 32.232 0.0129432 31.8579 0.0136773 31.4803V23.3612Z" fill="#1E1E1E"/>
<path d="M33.5243 12.1485C33.3676 12.1547 33.2131 12.1096 33.0843 12.02C32.9556 11.9304 32.8596 11.8013 32.8109 11.6522C32.7623 11.5031 32.7636 11.3422 32.8148 11.1939C32.8659 11.0456 32.964 10.9181 33.0943 10.8307C37.3947 7.93819 43.9012 2.90147 54.0101 2.90147C54.0101 2.90147 82.5271 0.93032 89.1285 8.44075C89.5865 8.96006 89.4357 9.72507 88.7432 9.75857L33.5243 12.1485Z" fill="white"/>
<path d="M0.276367 24.6288C0.276367 23.78 0.36014 22.652 0.644975 22.3505C0.68407 22.3058 0.711994 22.3058 0.723164 22.3058H6.71587C6.80142 22.3082 6.88433 22.336 6.95397 22.3858C7.02362 22.4355 7.07684 22.5049 7.10682 22.585C7.14298 22.6776 7.15377 22.7782 7.13807 22.8764C7.12236 22.9745 7.08072 23.0667 7.01746 23.1434L5.78876 24.4668C5.75089 24.5097 5.70453 24.5443 5.65262 24.5683C5.6007 24.5923 5.54437 24.6053 5.48717 24.6064L0.276367 24.6288Z" fill="#FAFAFA"/>
<path d="M6.71605 22.5849C6.74772 22.5878 6.77784 22.5999 6.80267 22.6198C6.8275 22.6396 6.84594 22.6664 6.85568 22.6966C6.87566 22.7426 6.88207 22.7933 6.87416 22.8427C6.86624 22.8922 6.84432 22.9384 6.811 22.9758L5.59905 24.2992C5.58648 24.3138 5.57111 24.3258 5.55385 24.3345C5.53659 24.3431 5.51778 24.3482 5.49852 24.3495H0.572556C0.543009 23.7502 0.630264 23.1509 0.829466 22.5849H6.71605ZM6.71605 22.0266H0.723349C-0.131155 22.0266 0.00847064 24.9079 0.00847064 24.9079H5.48177C5.57767 24.9067 5.67229 24.8857 5.75973 24.8463C5.84717 24.8069 5.92556 24.75 5.99 24.6789L7.2187 23.3555C7.32168 23.2478 7.39197 23.1131 7.4214 22.967C7.45084 22.8209 7.43821 22.6695 7.38498 22.5303C7.33175 22.3911 7.24012 22.2699 7.12072 22.1807C7.00132 22.0916 6.85905 22.0381 6.71047 22.0266H6.71605Z" fill="#1E1E1E"/>
<path d="M53.502 2.90161V11.2608" stroke="#1E1E1E" stroke-width="2" stroke-linecap="round" stroke-linejoin="round"/>
<path d="M53.502 16.8445V28.7718" stroke="white" stroke-width="2" stroke-linecap="round" stroke-linejoin="round"/>
<path d="M83.9619 5.32513V10.2781" stroke="#1E1E1E" stroke-width="2" stroke-linecap="round" stroke-linejoin="round"/>
<path d="M36.4951 8.53552V12.0199" stroke="#1E1E1E" stroke-width="2" stroke-linecap="round" stroke-linejoin="round"/>
<path d="M15.847 43C20.6188 43 24.487 39.1325 24.487 34.3616C24.487 29.5907 20.6188 25.7232 15.847 25.7232C11.0753 25.7232 7.20703 29.5907 7.20703 34.3616C7.20703 39.1325 11.0753 43 15.847 43Z" fill="#1E1E1E" stroke="#FAFAFA" stroke-width="2" stroke-linecap="round" stroke-linejoin="round"/>
<path d="M83.9623 43C88.734 43 92.6022 39.1325 92.6022 34.3616C92.6022 29.5907 88.734 25.7232 83.9623 25.7232C79.1905 25.7232 75.3223 29.5907 75.3223 34.3616C75.3223 39.1325 79.1905 43 83.9623 43Z" fill="#1E1E1E" stroke="white" stroke-width="2" stroke-linecap="round" stroke-linejoin="round"/>
<path d="M18.9043 37.4083C20.5902 35.7226 20.5902 32.9896 18.9043 31.304C17.2183 29.6183 14.4848 29.6183 12.7988 31.304C11.1128 32.9896 11.1128 35.7226 12.7988 37.4083C14.4848 39.094 17.2183 39.094 18.9043 37.4083Z" fill="#FAFAFA"/>
<path d="M87.0185 37.4092C88.7045 35.7236 88.7045 32.9906 87.0185 31.3049C85.3325 29.6192 82.599 29.6192 80.9131 31.3049C79.2271 32.9906 79.2271 35.7236 80.9131 37.4092C82.5991 39.0949 85.3325 39.0949 87.0185 37.4092Z" fill="white"/>
</svg>
