<svg width="94" height="73" viewBox="0 0 94 20" fill="none" xmlns="http://www.w3.org/2000/svg">
<path d="M0 33.2791V29.4424C0 29.2524 0.0374329 29.0642 0.110139 28.8886C0.182846 28.713 0.289408 28.5535 0.423752 28.4191C0.558096 28.2847 0.717565 28.1781 0.893093 28.1054C1.06862 28.0327 1.25678 27.9952 1.44677 27.9952L3.25801 17.5566C3.35749 16.9774 3.63155 16.4425 4.04346 16.0235C4.45537 15.6044 4.98545 15.3213 5.56272 15.212C8.60203 14.6511 18.2583 13.7424 24.236 13.1703C27.1615 12.875 29.9294 11.7019 32.1763 9.8048C36.6624 6.09154 45.8028 3.91572e-08 57.8311 3.91572e-08H79.5156C82.2005 -0.000216454 84.8084 0.897285 86.9248 2.54983C89.0412 4.20237 90.5447 6.51512 91.1962 9.12048C93.05 16.5088 93.9916 24.0966 94 31.7141V31.8151C94 32.5827 93.6951 33.3189 93.1525 33.8617C92.6098 34.4045 91.8739 34.7094 91.1065 34.7094H1.44677C1.0664 34.708 0.701776 34.5573 0.431248 34.2899C0.160719 34.0224 0.00587173 33.6595 0 33.2791Z" fill="#1E1E1E"/>
<path d="M27.8222 40.8628C31.21 37.4741 31.21 31.9799 27.8222 28.5912C24.4345 25.2024 18.9418 25.2025 15.554 28.5912C12.1662 31.9799 12.1662 37.4741 15.554 40.8628C18.9418 44.2515 24.4345 44.2515 27.8222 40.8628Z" fill="#1E1E1E" stroke="white" stroke-width="2" stroke-linecap="round" stroke-linejoin="round"/>
<path d="M24.7538 37.7929C26.4466 36.0997 26.4466 33.3543 24.7538 31.6611C23.061 29.9678 20.3164 29.9678 18.6237 31.6611C16.9309 33.3543 16.9309 36.0996 18.6237 37.7929C20.3164 39.4862 23.061 39.4862 24.7538 37.7929Z" fill="white"/>
<path d="M85.6523 40.8642C89.0401 37.4754 89.0401 31.9812 85.6523 28.5925C82.2645 25.2038 76.7719 25.2038 73.3841 28.5925C69.9963 31.9812 69.9963 37.4754 73.3841 40.8641C76.7719 44.2529 82.2645 44.2529 85.6523 40.8642Z" fill="#1E1E1E" stroke="white" stroke-width="2" stroke-linecap="round" stroke-linejoin="round"/>
<path d="M82.5819 37.7943C84.2747 36.101 84.2747 33.3557 82.5819 31.6624C80.8891 29.9692 78.1446 29.9692 76.4518 31.6624C74.759 33.3557 74.759 36.101 76.4518 37.7942C78.1446 39.4875 80.8891 39.4875 82.5819 37.7943Z" fill="white"/>
<path d="M1.77734 28.2757L2.69138 22.4927H3.62226C3.79203 22.4927 3.95973 22.5298 4.11368 22.6014C4.26763 22.6729 4.40411 22.7773 4.51358 22.9071C4.62304 23.0369 4.70284 23.189 4.74744 23.3529C4.79204 23.5167 4.80038 23.6883 4.77181 23.8557L4.27273 27.3166C4.22596 27.5817 4.08854 27.8224 3.88395 27.9973C3.67937 28.1723 3.42033 28.2707 3.15121 28.2757H1.77734Z" fill="white"/>
<path d="M3.62301 22.773C3.75229 22.772 3.88019 22.7996 3.99751 22.8539C4.11484 22.9082 4.21864 22.9879 4.30151 23.0871C4.38568 23.188 4.44685 23.306 4.48075 23.4329C4.51465 23.5598 4.52048 23.6926 4.49779 23.822L3.9931 27.2603C3.95859 27.4659 3.85229 27.6526 3.69314 27.7871C3.53399 27.9217 3.33231 27.9953 3.12393 27.9951H2.10334L2.93326 22.773H3.62301ZM3.62301 22.2121H2.45101L1.44727 28.556H3.12954C3.47025 28.5558 3.7999 28.4352 4.06045 28.2156C4.32101 27.9961 4.49575 27.6915 4.55386 27.3557L5.05294 23.9061C5.08807 23.699 5.07754 23.4868 5.0221 23.2842C4.96666 23.0817 4.86764 22.8937 4.73197 22.7334C4.5963 22.5731 4.42727 22.4444 4.23668 22.3563C4.0461 22.2682 3.83855 22.2228 3.62859 22.2233L3.62301 22.2121Z" fill="#1E1E1E"/>
<path d="M34.7782 12.8954C34.6324 12.8853 34.4931 12.8314 34.3786 12.7406C34.2641 12.6499 34.1798 12.5266 34.1367 12.3869C34.0936 12.2473 34.0938 12.0979 34.1372 11.9584C34.1806 11.8188 34.2653 11.6958 34.38 11.6053C39.3035 8.11078 47.3784 2.93354 57.859 2.93354H79.5435C81.5841 2.93058 83.5669 3.6111 85.1757 4.86662C86.7845 6.12213 87.9268 7.88033 88.4204 9.86084C88.4204 9.95059 88.4652 11.3024 88.4876 12.1774C88.4899 12.2738 88.4729 12.3697 88.4375 12.4595C88.4022 12.5492 88.3492 12.631 88.2818 12.7C88.2144 12.769 88.1339 12.8238 88.045 12.8612C87.9562 12.8986 87.8607 12.9178 87.7643 12.9178L34.7782 12.8954Z" fill="white"/>
<path d="M57.832 2.91107V12.8953" stroke="#1E1E1E" stroke-width="2" stroke-linecap="round" stroke-linejoin="round"/>
<path d="M57.832 18.5046V29.1171" stroke="white" stroke-width="2" stroke-linecap="round" stroke-linejoin="round"/>
<path d="M38.3896 8.89587V12.8952" stroke="#1E1E1E" stroke-width="2" stroke-linecap="round" stroke-linejoin="round"/>
<path d="M79.5156 2.91107V12.8953" stroke="#1E1E1E" stroke-width="2" stroke-linecap="round" stroke-linejoin="round"/>
<path d="M93.3162 23.519C92.6264 23.4517 91.7685 22.9581 91.6788 22.4869L90.7872 17.5621C90.7733 17.4269 90.7887 17.2903 90.8322 17.1616C90.8757 17.0329 90.9464 16.915 91.0395 16.8161C91.3847 16.4322 91.8488 16.1755 92.3573 16.0869L93.3162 23.519Z" fill="#FAFAFA"/>
<path d="M92.1384 16.4347L93.0132 23.1657C92.5141 23.0142 92.0207 22.6945 91.9758 22.4309L91.0898 17.5061C91.0816 17.4118 91.0939 17.3169 91.1259 17.2278C91.1578 17.1387 91.2087 17.0576 91.2749 16.99C91.5093 16.7313 91.8068 16.538 92.1384 16.4291V16.4347ZM92.6207 15.7784C91.6562 15.7784 90.3777 16.6535 90.5347 17.607L91.4206 22.5318C91.5552 23.2666 92.7609 23.8051 93.5067 23.8051H93.6581L92.6207 15.7784Z" fill="#1E1E1E"/>
</svg>
